<?xml version="1.0" encoding="UTF-8" standalone="no"?>
<svg
   xmlns:dc="http://purl.org/dc/elements/1.1/"
   xmlns:cc="http://creativecommons.org/ns#"
   xmlns:rdf="http://www.w3.org/1999/02/22-rdf-syntax-ns#"
   xmlns:svg="http://www.w3.org/2000/svg"
   xmlns="http://www.w3.org/2000/svg"
   xmlns:sodipodi="http://sodipodi.sourceforge.net/DTD/sodipodi-0.dtd"
   xmlns:inkscape="http://www.inkscape.org/namespaces/inkscape"
   viewBox="0 0 24 24"
   version="1.1"
   id="svg4"
   sodipodi:docname="align-justify.svg"
   width="24"
   height="24"
   inkscape:version="0.92.3 (2405546, 2018-03-11)">
  <metadata
     id="metadata10">
    <rdf:RDF>
      <cc:Work
         rdf:about="">
        <dc:format>image/svg+xml</dc:format>
        <dc:type
           rdf:resource="http://purl.org/dc/dcmitype/StillImage" />
        <dc:title></dc:title>
      </cc:Work>
    </rdf:RDF>
  </metadata>
  <defs
     id="defs8" />
  <sodipodi:namedview
     pagecolor="#ffffff"
     bordercolor="#666666"
     borderopacity="1"
     objecttolerance="10"
     gridtolerance="10"
     guidetolerance="10"
     inkscape:pageopacity="0"
     inkscape:pageshadow="2"
     inkscape:window-width="2400"
     inkscape:window-height="1271"
     id="namedview6"
     showgrid="true"
     inkscape:zoom="29.5"
     inkscape:cx="8.3605374"
     inkscape:cy="10.210583"
     inkscape:window-x="2391"
     inkscape:window-y="-9"
     inkscape:window-maximized="1"
     inkscape:current-layer="svg4">
    <inkscape:grid
       type="xygrid"
       id="grid12" />
  </sodipodi:namedview>
  <path
     d="M 3.4440875,5.1651324 V 4.250847 A 0.22857143,0.22857143 0 0 1 3.6726589,4.0222755 H 20.282182 A 0.22857143,0.22857143 0 0 1 20.510754,4.250847 V 5.1651324 A 0.22857143,0.22857143 0 0 1 20.282182,5.393704 H 3.6726589 A 0.22857143,0.22857143 0 0 1 3.4440875,5.1651324 Z M 3.6726589,10.269894 H 20.282182 a 0.22857143,0.22857143 0 0 0 0.228572,-0.228572 V 9.1270375 A 0.22857143,0.22857143 0 0 0 20.282182,8.898466 H 3.6726589 A 0.22857143,0.22857143 0 0 0 3.4440875,9.1270375 v 0.9142845 a 0.22857143,0.22857143 0 0 0 0.2285714,0.228572 z m 0,9.752381 H 20.282182 a 0.22857143,0.22857143 0 0 0 0.228572,-0.228572 V 18.879418 A 0.22857143,0.22857143 0 0 0 20.282182,18.650846 H 3.6726589 a 0.22857143,0.22857143 0 0 0 -0.2285714,0.228572 v 0.914285 a 0.22857143,0.22857143 0 0 0 0.2285714,0.228572 z m 0,-4.87619 H 20.282182 a 0.22857143,0.22857143 0 0 0 0.228572,-0.228572 V 14.003228 A 0.22857143,0.22857143 0 0 0 20.282182,13.774656 H 3.6726589 a 0.22857143,0.22857143 0 0 0 -0.2285714,0.228572 v 0.914285 a 0.22857143,0.22857143 0 0 0 0.2285714,0.228572 z"
     style="opacity:1;fill:#000000;fill-opacity:1;stroke-width:0.99999994"
     id="path2"
     inkscape:connector-curvature="0" />
</svg>
