<?xml version="1.0" encoding="UTF-8" standalone="no"?>
<svg
   xmlns:dc="http://purl.org/dc/elements/1.1/"
   xmlns:cc="http://creativecommons.org/ns#"
   xmlns:rdf="http://www.w3.org/1999/02/22-rdf-syntax-ns#"
   xmlns:svg="http://www.w3.org/2000/svg"
   xmlns="http://www.w3.org/2000/svg"
   xmlns:sodipodi="http://sodipodi.sourceforge.net/DTD/sodipodi-0.dtd"
   xmlns:inkscape="http://www.inkscape.org/namespaces/inkscape"
   viewBox="0 0 24 24"
   version="1.1"
   id="svg4"
   sodipodi:docname="align-right.svg"
   width="24"
   height="24"
   inkscape:version="0.92.3 (2405546, 2018-03-11)">
  <metadata
     id="metadata10">
    <rdf:RDF>
      <cc:Work
         rdf:about="">
        <dc:format>image/svg+xml</dc:format>
        <dc:type
           rdf:resource="http://purl.org/dc/dcmitype/StillImage" />
        <dc:title></dc:title>
      </cc:Work>
    </rdf:RDF>
  </metadata>
  <defs
     id="defs8" />
  <sodipodi:namedview
     pagecolor="#ffffff"
     bordercolor="#666666"
     borderopacity="1"
     objecttolerance="10"
     gridtolerance="10"
     guidetolerance="10"
     inkscape:pageopacity="0"
     inkscape:pageshadow="2"
     inkscape:window-width="2400"
     inkscape:window-height="1271"
     id="namedview6"
     showgrid="true"
     inkscape:zoom="29.5"
     inkscape:cx="12.380645"
     inkscape:cy="14.66653"
     inkscape:window-x="2391"
     inkscape:window-y="-9"
     inkscape:window-maximized="1"
     inkscape:current-layer="svg4">
    <inkscape:grid
       type="xygrid"
       id="grid12" />
  </sodipodi:namedview>
  <path
     d="M 9.6250206,5.1598061 V 4.2455207 A 0.22857143,0.22857143 0 0 1 9.853592,4.0169491 H 20.367878 A 0.22857143,0.22857143 0 0 1 20.59645,4.2455207 V 5.1598061 A 0.22857143,0.22857143 0 0 1 20.367878,5.3883776 H 9.853592 A 0.22857143,0.22857143 0 0 1 9.6250206,5.1598061 Z M 3.758354,10.264568 H 20.367878 A 0.22857143,0.22857143 0 0 0 20.59645,10.035996 V 9.1217111 A 0.22857143,0.22857143 0 0 0 20.367878,8.8931396 H 3.758354 A 0.22857143,0.22857143 0 0 0 3.5297826,9.1217111 v 0.9142849 a 0.22857143,0.22857143 0 0 0 0.2285714,0.228572 z m 0,9.752381 H 20.367878 A 0.22857143,0.22857143 0 0 0 20.59645,19.788377 V 18.874092 A 0.22857143,0.22857143 0 0 0 20.367878,18.645521 H 3.758354 a 0.22857143,0.22857143 0 0 0 -0.2285714,0.228571 v 0.914285 a 0.22857143,0.22857143 0 0 0 0.2285714,0.228572 z m 6.095238,-4.87619 H 20.367878 A 0.22857143,0.22857143 0 0 0 20.59645,14.912187 V 13.997902 A 0.22857143,0.22857143 0 0 0 20.367878,13.76933 H 9.853592 a 0.22857143,0.22857143 0 0 0 -0.2285714,0.228572 v 0.914285 a 0.22857143,0.22857143 0 0 0 0.2285714,0.228572 z"
     style="opacity:1;fill:#000000;fill-opacity:1;stroke-width:0.99999994"
     id="path2"
     inkscape:connector-curvature="0" />
</svg>
