<?xml version="1.0" encoding="UTF-8" standalone="no"?>
<svg
   xmlns:dc="http://purl.org/dc/elements/1.1/"
   xmlns:cc="http://creativecommons.org/ns#"
   xmlns:rdf="http://www.w3.org/1999/02/22-rdf-syntax-ns#"
   xmlns:svg="http://www.w3.org/2000/svg"
   xmlns="http://www.w3.org/2000/svg"
   xmlns:sodipodi="http://sodipodi.sourceforge.net/DTD/sodipodi-0.dtd"
   xmlns:inkscape="http://www.inkscape.org/namespaces/inkscape"
   viewBox="0 0 24 24"
   version="1.1"
   id="svg4"
   sodipodi:docname="align-center.svg"
   width="24"
   height="24"
   inkscape:version="0.92.3 (2405546, 2018-03-11)">
  <metadata
     id="metadata10">
    <rdf:RDF>
      <cc:Work
         rdf:about="">
        <dc:format>image/svg+xml</dc:format>
        <dc:type
           rdf:resource="http://purl.org/dc/dcmitype/StillImage" />
        <dc:title></dc:title>
      </cc:Work>
    </rdf:RDF>
  </metadata>
  <defs
     id="defs8" />
  <sodipodi:namedview
     pagecolor="#ffffff"
     bordercolor="#666666"
     borderopacity="1"
     objecttolerance="10"
     gridtolerance="10"
     guidetolerance="10"
     inkscape:pageopacity="0"
     inkscape:pageshadow="2"
     inkscape:window-width="2400"
     inkscape:window-height="1271"
     id="namedview6"
     showgrid="true"
     inkscape:zoom="29.5"
     inkscape:cx="18.520531"
     inkscape:cy="16.333734"
     inkscape:window-x="2391"
     inkscape:window-y="-9"
     inkscape:window-maximized="1"
     inkscape:current-layer="svg4">
    <inkscape:grid
       type="xygrid"
       id="grid12" />
  </sodipodi:namedview>
  <path
     d="M 16.801292,4.2740917 V 5.1883771 A 0.22857143,0.22857143 0 0 1 16.572721,5.4169487 H 7.2774833 A 0.22857143,0.22857143 0 0 1 7.0489118,5.1883771 V 4.2740917 A 0.22857143,0.22857143 0 0 1 7.2774833,4.0455202 h 9.2952377 a 0.22857143,0.22857143 0 0 1 0.228571,0.2285715 z M 3.6203404,10.293139 H 20.229864 a 0.22857143,0.22857143 0 0 0 0.228572,-0.228571 V 9.1502821 A 0.22857143,0.22857143 0 0 0 20.229864,8.9217107 H 3.6203404 A 0.22857143,0.22857143 0 0 0 3.391769,9.1502821 v 0.9142859 a 0.22857143,0.22857143 0 0 0 0.2285714,0.228571 z m 0,9.752381 H 20.229864 a 0.22857143,0.22857143 0 0 0 0.228572,-0.228571 V 18.902663 A 0.22857143,0.22857143 0 0 0 20.229864,18.674092 H 3.6203404 A 0.22857143,0.22857143 0 0 0 3.391769,18.902663 v 0.914286 A 0.22857143,0.22857143 0 0 0 3.6203404,20.04552 Z M 16.572721,13.797901 H 7.2774833 a 0.22857143,0.22857143 0 0 0 -0.2285715,0.228572 v 0.914285 a 0.22857143,0.22857143 0 0 0 0.2285715,0.228572 h 9.2952377 a 0.22857143,0.22857143 0 0 0 0.228571,-0.228572 v -0.914285 a 0.22857143,0.22857143 0 0 0 -0.228571,-0.228572 z"
     style="opacity:1;fill:#000000;fill-opacity:1;stroke-width:0.99999994"
     id="path2"
     inkscape:connector-curvature="0" />
</svg>
