<?xml version="1.0" encoding="UTF-8" standalone="no"?>
<svg
   xmlns:dc="http://purl.org/dc/elements/1.1/"
   xmlns:cc="http://creativecommons.org/ns#"
   xmlns:rdf="http://www.w3.org/1999/02/22-rdf-syntax-ns#"
   xmlns:svg="http://www.w3.org/2000/svg"
   xmlns="http://www.w3.org/2000/svg"
   xmlns:sodipodi="http://sodipodi.sourceforge.net/DTD/sodipodi-0.dtd"
   xmlns:inkscape="http://www.inkscape.org/namespaces/inkscape"
   viewBox="0 0 24 24"
   version="1.1"
   id="svg4"
   sodipodi:docname="align-left.svg"
   width="24"
   height="24"
   inkscape:version="0.92.3 (2405546, 2018-03-11)">
  <metadata
     id="metadata10">
    <rdf:RDF>
      <cc:Work
         rdf:about="">
        <dc:format>image/svg+xml</dc:format>
        <dc:type
           rdf:resource="http://purl.org/dc/dcmitype/StillImage" />
        <dc:title></dc:title>
      </cc:Work>
    </rdf:RDF>
  </metadata>
  <defs
     id="defs8" />
  <sodipodi:namedview
     pagecolor="#ffffff"
     bordercolor="#666666"
     borderopacity="1"
     objecttolerance="10"
     gridtolerance="10"
     guidetolerance="10"
     inkscape:pageopacity="0"
     inkscape:pageshadow="2"
     inkscape:window-width="2400"
     inkscape:window-height="1271"
     id="namedview6"
     showgrid="true"
     inkscape:zoom="29.5"
     inkscape:cx="10.261903"
     inkscape:cy="14.307335"
     inkscape:window-x="2391"
     inkscape:window-y="-9"
     inkscape:window-maximized="1"
     inkscape:current-layer="svg4">
    <inkscape:grid
       type="xygrid"
       id="grid12" />
  </sodipodi:namedview>
  <path
     d="M 14.461986,4.2401934 V 5.1544788 A 0.22857143,0.22857143 0 0 1 14.233415,5.3830504 H 3.7191296 A 0.22857143,0.22857143 0 0 1 3.4905582,5.1544788 V 4.2401934 A 0.22857143,0.22857143 0 0 1 3.7191296,4.0116219 H 14.233415 a 0.22857143,0.22857143 0 0 1 0.228571,0.2285715 z M 3.7191296,10.259241 H 20.328653 A 0.22857143,0.22857143 0 0 0 20.557225,10.03067 V 9.1163838 A 0.22857143,0.22857143 0 0 0 20.328653,8.8878124 H 3.7191296 A 0.22857143,0.22857143 0 0 0 3.4905582,9.1163838 V 10.03067 a 0.22857143,0.22857143 0 0 0 0.2285714,0.228571 z m 0,9.752381 H 20.328653 a 0.22857143,0.22857143 0 0 0 0.228572,-0.228571 V 18.868765 A 0.22857143,0.22857143 0 0 0 20.328653,18.640194 H 3.7191296 a 0.22857143,0.22857143 0 0 0 -0.2285714,0.228571 v 0.914286 a 0.22857143,0.22857143 0 0 0 0.2285714,0.228571 z M 14.233415,13.764003 H 3.7191296 a 0.22857143,0.22857143 0 0 0 -0.2285714,0.228572 v 0.914285 a 0.22857143,0.22857143 0 0 0 0.2285714,0.228572 H 14.233415 a 0.22857143,0.22857143 0 0 0 0.228571,-0.228572 v -0.914285 a 0.22857143,0.22857143 0 0 0 -0.228571,-0.228572 z"
     style="opacity:1;fill:#000000;fill-opacity:1;stroke-width:0.99999994"
     id="path2"
     inkscape:connector-curvature="0" />
</svg>
