<?xml version="1.0" encoding="UTF-8" standalone="no"?>
<svg
   viewBox="0 0 24 24"
   version="1.1"
   id="svg4"
   sodipodi:docname="align-none.svg"
   width="24"
   height="24"
   inkscape:version="1.1.2 (b8e25be833, 2022-02-05)"
   xmlns:inkscape="http://www.inkscape.org/namespaces/inkscape"
   xmlns:sodipodi="http://sodipodi.sourceforge.net/DTD/sodipodi-0.dtd"
   xmlns="http://www.w3.org/2000/svg"
   xmlns:svg="http://www.w3.org/2000/svg">
  <defs
     id="defs8" />
  <sodipodi:namedview
     id="namedview6"
     pagecolor="#ffffff"
     bordercolor="#666666"
     borderopacity="1.0"
     inkscape:pageshadow="2"
     inkscape:pageopacity="0.0"
     inkscape:pagecheckerboard="0"
     showgrid="true"
     width="24px"
     inkscape:zoom="25.25"
     inkscape:cx="7.8217822"
     inkscape:cy="12.811881"
     inkscape:window-width="1920"
     inkscape:window-height="1001"
     inkscape:window-x="-9"
     inkscape:window-y="-9"
     inkscape:window-maximized="1"
     inkscape:current-layer="svg4">
    <inkscape:grid
       type="xygrid"
       id="grid10" />
  </sodipodi:namedview>
  <path
     d="m 18.749801,13.50025 h -2.424018 l 1.269977,0.999981 h 1.154041 a 0.24999541,0.24999541 0 0 0 0.249995,-0.249995 v -0.49999 A 0.24999541,0.24999541 0 0 0 18.749801,13.50025 Z M 18.999796,9.750319 A 0.24999541,0.24999541 0 0 0 18.749801,9.500324 h -7.5033 l 1.269664,0.999981 h 6.233636 A 0.24999541,0.24999541 0 0 0 18.999796,10.25031 Z M 18.749801,6.500379 A 0.24999541,0.24999541 0 0 0 18.999796,6.2503835 V 5.7503927 A 0.24999541,0.24999541 0 0 0 18.749801,5.5003973 H 6.166906 L 7.4375076,6.500379 Z M 5.0000524,14.250236 a 0.24999541,0.24999541 0 0 0 0.2499954,0.249995 H 12.749911 L 11.479934,13.50025 H 5.2500478 A 0.24999541,0.24999541 0 0 0 5.0000524,13.750246 Z M 21.905993,19.166396 2.7188442,4.0566738 a 0.24562049,0.24562049 0 0 0 -0.350306,0.037499 L 2.0560439,4.4847909 A 0.24749546,0.24749546 0 0 0 2.0938559,4.835097 L 21.281004,19.944819 a 0.24718297,0.24718297 0 0 0 0.349369,-0.03844 l 0.312494,-0.390618 a 0.24468301,0.24468301 0 0 0 -0.03687,-0.349368 z M 5.2500478,17.500176 a 0.24999541,0.24999541 0 0 0 -0.2499954,0.249996 v 0.499991 a 0.24999541,0.24999541 0 0 0 0.2499954,0.249995 H 17.829505 l -1.269976,-0.999982 z m 0,-6.999871 H 7.6703159 L 6.4003392,9.500324 H 5.2500478 A 0.24999541,0.24999541 0 0 0 5.0000524,9.750319 v 0.499991 a 0.24999541,0.24999541 0 0 0 0.2499954,0.249995 z"
     id="path2"
     style="opacity:1;stroke-width:0.0312494" />
</svg>
