<?xml version="1.0" encoding="UTF-8" standalone="no"?>
<svg
   viewBox="0 0 24 24"
   version="1.1"
   id="svg4"
   sodipodi:docname="border-style.svg"
   width="24"
   height="24"
   inkscape:version="1.1.2 (b8e25be833, 2022-02-05)"
   xmlns:inkscape="http://www.inkscape.org/namespaces/inkscape"
   xmlns:sodipodi="http://sodipodi.sourceforge.net/DTD/sodipodi-0.dtd"
   xmlns="http://www.w3.org/2000/svg"
   xmlns:svg="http://www.w3.org/2000/svg">
  <defs
     id="defs8" />
  <sodipodi:namedview
     id="namedview6"
     pagecolor="#ffffff"
     bordercolor="#666666"
     borderopacity="1.0"
     inkscape:pageshadow="2"
     inkscape:pageopacity="0.0"
     inkscape:pagecheckerboard="0"
     showgrid="true"
     inkscape:zoom="1.578125"
     inkscape:cx="224"
     inkscape:cy="256.31683"
     inkscape:window-width="1920"
     inkscape:window-height="1001"
     inkscape:window-x="-9"
     inkscape:window-y="-9"
     inkscape:window-maximized="1"
     inkscape:current-layer="svg4">
    <inkscape:grid
       type="xygrid"
       id="grid10" />
  </sodipodi:namedview>
  <path
     d="M 19.714286,4 H 4.5714286 A 0.57142857,0.57142857 0 0 0 4,4.571429 V 19.714286 A 0.28571429,0.28571429 0 0 0 4.2857143,20 H 4.8571429 A 0.28571429,0.28571429 0 0 0 5.1428571,19.714286 V 5.142857 H 19.714286 A 0.28571429,0.28571429 0 0 0 20,4.857143 V 4.285714 A 0.28571429,0.28571429 0 0 0 19.714286,4 Z m -7.428572,14.285714 h -0.571428 a 0.57142857,0.57142857 0 0 0 -0.571429,0.571429 v 0.571428 A 0.57142857,0.57142857 0 0 0 11.714286,20 h 0.571428 a 0.57142857,0.57142857 0 0 0 0.571429,-0.571429 v -0.571428 a 0.57142857,0.57142857 0 0 0 -0.571429,-0.571429 z m 3.428572,0 h -0.571429 a 0.57142857,0.57142857 0 0 0 -0.571428,0.571429 v 0.571428 A 0.57142857,0.57142857 0 0 0 15.142857,20 h 0.571429 a 0.57142857,0.57142857 0 0 0 0.571428,-0.571429 v -0.571428 a 0.57142857,0.57142857 0 0 0 -0.571428,-0.571429 z m -6.8571431,0 H 8.2857143 a 0.57142857,0.57142857 0 0 0 -0.5714286,0.571429 v 0.571428 A 0.57142857,0.57142857 0 0 0 8.2857143,20 H 8.8571429 A 0.57142857,0.57142857 0 0 0 9.4285714,19.428571 V 18.857143 A 0.57142857,0.57142857 0 0 0 8.8571429,18.285714 Z M 19.428571,11.142857 h -0.571428 a 0.57142857,0.57142857 0 0 0 -0.571429,0.571429 v 0.571428 a 0.57142857,0.57142857 0 0 0 0.571429,0.571429 h 0.571428 A 0.57142857,0.57142857 0 0 0 20,12.285714 v -0.571428 a 0.57142857,0.57142857 0 0 0 -0.571429,-0.571429 z m 0,-3.428571 h -0.571428 a 0.57142857,0.57142857 0 0 0 -0.571429,0.571428 v 0.571429 a 0.57142857,0.57142857 0 0 0 0.571429,0.571428 h 0.571428 A 0.57142857,0.57142857 0 0 0 20,8.857143 V 8.285714 A 0.57142857,0.57142857 0 0 0 19.428571,7.714286 Z m 0,10.571428 h -0.571428 a 0.57142857,0.57142857 0 0 0 -0.571429,0.571429 v 0.571428 A 0.57142857,0.57142857 0 0 0 18.857143,20 h 0.571428 A 0.57142857,0.57142857 0 0 0 20,19.428571 v -0.571428 a 0.57142857,0.57142857 0 0 0 -0.571429,-0.571429 z m 0,-3.714285 h -0.571428 a 0.57142857,0.57142857 0 0 0 -0.571429,0.571428 v 0.571429 a 0.57142857,0.57142857 0 0 0 0.571429,0.571428 h 0.571428 A 0.57142857,0.57142857 0 0 0 20,15.714286 v -0.571429 a 0.57142857,0.57142857 0 0 0 -0.571429,-0.571428 z"
     id="path2"
     style="stroke-width:0.0357143" />
</svg>
