<?xml version="1.0" encoding="UTF-8" standalone="no"?>
<svg
   xmlns:dc="http://purl.org/dc/elements/1.1/"
   xmlns:cc="http://creativecommons.org/ns#"
   xmlns:rdf="http://www.w3.org/1999/02/22-rdf-syntax-ns#"
   xmlns:svg="http://www.w3.org/2000/svg"
   xmlns="http://www.w3.org/2000/svg"
   xmlns:sodipodi="http://sodipodi.sourceforge.net/DTD/sodipodi-0.dtd"
   xmlns:inkscape="http://www.inkscape.org/namespaces/inkscape"
   viewBox="0 0 24 24"
   version="1.1"
   id="svg4"
   sodipodi:docname="color-picker.svg"
   width="24"
   height="24"
   inkscape:version="0.92.3 (2405546, 2018-03-11)">
  <metadata
     id="metadata10">
    <rdf:RDF>
      <cc:Work
         rdf:about="">
        <dc:format>image/svg+xml</dc:format>
        <dc:type
           rdf:resource="http://purl.org/dc/dcmitype/StillImage" />
        <dc:title />
      </cc:Work>
    </rdf:RDF>
  </metadata>
  <defs
     id="defs8" />
  <sodipodi:namedview
     pagecolor="#ffffff"
     bordercolor="#666666"
     borderopacity="1"
     objecttolerance="10"
     gridtolerance="10"
     guidetolerance="10"
     inkscape:pageopacity="0"
     inkscape:pageshadow="2"
     inkscape:window-width="2400"
     inkscape:window-height="1271"
     id="namedview6"
     showgrid="true"
     showguides="false"
     inkscape:zoom="29.5"
     inkscape:cx="14.012133"
     inkscape:cy="12.856977"
     inkscape:window-x="2391"
     inkscape:window-y="-9"
     inkscape:window-maximized="1"
     inkscape:current-layer="svg4">
    <inkscape:grid
       type="xygrid"
       id="grid12" />
  </sodipodi:namedview>
  <path
     d="m 6.9374995,12.28125 c -0.4675757,0 -0.84375,0.376175 -0.84375,0.84375 0,0.467576 0.3761743,0.84375 0.84375,0.84375 0.4675757,0 0.8437495,-0.376174 0.8437495,-0.84375 0,-0.467575 -0.3761738,-0.84375 -0.8437495,-0.84375 z M 8.062499,8.3437499 c -0.467575,0 -0.8437495,0.376174 -0.8437495,0.8437501 0,0.467575 0.3761745,0.84375 0.8437495,0.84375 0.467576,0 0.843751,-0.376175 0.843751,-0.84375 0,-0.4675761 -0.376175,-0.8437501 -0.843751,-0.8437501 z M 12,3 C 11.405858,3 10.797651,3.056186 10.182424,3.175783 6.6878909,3.857816 3.8718809,6.6667929 3.1828152,10.150783 1.9664009,16.306642 7.0921838,21 11.419924,21 11.711717,21 12,20.97892 12.284773,20.93327 c 1.448434,-0.225 2.158585,-1.919533 1.494128,-3.223839 -0.812108,-1.59615 0.348056,-3.459433 2.141023,-3.459433 h 2.801957 c 1.258586,0 2.278119,-1.040631 2.281642,-2.295707 C 20.985913,7.0042909 16.960543,2.999998 12,2.999998 Z m 6.718358,10.125 h -2.801957 c -1.24101,0 -2.36952,0.629293 -3.012878,1.680467 -0.639849,1.044142 -0.689066,2.320316 -0.130089,3.417185 0.172273,0.3375 0.16875,0.759381 -0.0039,1.100391 -0.08434,0.161717 -0.277727,0.442967 -0.657412,0.50274 -0.22149,0.0351 -0.453522,0.05271 -0.692588,0.05271 -1.919533,0 -4.0113261,-1.100378 -5.4667932,-2.86875 C 4.4059152,15.125379 3.8117737,12.769912 4.2863823,10.37577 4.8875438,7.3312369 7.3449681,4.884356 10.400044,4.286704 c 0.534381,-0.105428 1.072273,-0.158207 1.599621,-0.158207 4.327728,0 7.860935,3.5121089 7.874988,7.825783 0,0.643359 -0.520303,1.170707 -1.156629,1.170707 z M 15.9375,7.7812499 c -0.467576,0 -0.84375,0.376174 -0.84375,0.84375 0,0.4675761 0.376174,0.8437491 0.84375,0.8437491 0.467575,0 0.84375,-0.376173 0.84375,-0.8437491 0,-0.467576 -0.376175,-0.84375 -0.84375,-0.84375 z m -4.5,-1.6875 c -0.467576,0 -0.84375,0.376174 -0.84375,0.84375 0,0.467576 0.376174,0.84375 0.84375,0.84375 0.467575,0 0.84375,-0.376174 0.84375,-0.84375 0,-0.467576 -0.376175,-0.84375 -0.84375,-0.84375 z"
     style="opacity:0.8;fill:#000000;fill-opacity:1;stroke-width:1.00000286"
     id="path2"
     inkscape:connector-curvature="0" />
</svg>
