<?xml version="1.0" encoding="UTF-8" standalone="no"?>
<svg
   viewBox="0 0 24 24"
   version="1.1"
   id="svg4"
   sodipodi:docname="crop.svg"
   width="24"
   height="24"
   inkscape:version="1.1.2 (b8e25be833, 2022-02-05)"
   xmlns:inkscape="http://www.inkscape.org/namespaces/inkscape"
   xmlns:sodipodi="http://sodipodi.sourceforge.net/DTD/sodipodi-0.dtd"
   xmlns="http://www.w3.org/2000/svg"
   xmlns:svg="http://www.w3.org/2000/svg">
  <defs
     id="defs8" />
  <sodipodi:namedview
     id="namedview6"
     pagecolor="#ffffff"
     bordercolor="#666666"
     borderopacity="1.0"
     inkscape:pageshadow="2"
     inkscape:pageopacity="0.0"
     inkscape:pagecheckerboard="0"
     showgrid="false"
     height="24px"
     inkscape:zoom="25.25"
     inkscape:cx="7.2673267"
     inkscape:cy="14.831683"
     inkscape:window-width="1920"
     inkscape:window-height="1001"
     inkscape:window-x="-9"
     inkscape:window-y="-9"
     inkscape:window-maximized="1"
     inkscape:current-layer="svg4" />
  <path
     d="M 19.25,14 H 17 V 7.706875 L 19.926875,4.78 c 0.0975,-0.0975 0.0975,-0.2559375 0,-0.3534375 L 19.573438,4.073125 c -0.0975,-0.0975 -0.255938,-0.0975 -0.353438,0 L 16.292813,7 H 10 V 4.75 C 10,4.335625 9.6640625,4 9.25,4 H 7.75 C 7.3359375,4 7,4.335625 7,4.75 V 7 H 4.75 C 4.3359375,7 4,7.335625 4,7.75 v 1.5 C 4,9.6640625 4.3359375,10 4.75,10 H 7 v 6 c 0,0.552188 0.4478125,1 1,1 h 6 v 2.25 c 0,0.414063 0.335938,0.75 0.75,0.75 h 1.5 C 16.664063,20 17,19.664063 17,19.25 V 17 h 2.25 C 19.664063,17 20,16.664063 20,16.25 v -1.5 C 20,14.335938 19.664063,14 19.25,14 Z M 7,9 H 5 V 8 h 2 z m 3,-1 h 5.292813 l -1,1 H 10 Z M 13.293125,10 10,13.293125 V 10 Z M 14,16 H 8 V 5 h 1 v 10 h 5 z M 10.706875,14 14,10.707188 V 14 Z M 15,19 V 9.7071875 l 1,-1 V 19 Z m 4,-3 h -2 v -1 h 2 z"
     id="path2"
     style="stroke-width:0.03125" />
</svg>
