<?xml version="1.0" encoding="UTF-8" standalone="no"?>
<svg
   viewBox="0 0 24 24"
   version="1.1"
   id="svg4"
   sodipodi:docname="cut.svg"
   width="24"
   height="24"
   inkscape:version="1.1.2 (b8e25be833, 2022-02-05)"
   xmlns:inkscape="http://www.inkscape.org/namespaces/inkscape"
   xmlns:sodipodi="http://sodipodi.sourceforge.net/DTD/sodipodi-0.dtd"
   xmlns="http://www.w3.org/2000/svg"
   xmlns:svg="http://www.w3.org/2000/svg">
  <defs
     id="defs8" />
  <sodipodi:namedview
     id="namedview6"
     pagecolor="#ffffff"
     bordercolor="#666666"
     borderopacity="1.0"
     inkscape:pageshadow="2"
     inkscape:pageopacity="0.0"
     inkscape:pagecheckerboard="0"
     showgrid="false"
     width="24px"
     inkscape:zoom="17.854446"
     inkscape:cx="11.845789"
     inkscape:cy="13.133983"
     inkscape:window-width="1920"
     inkscape:window-height="1001"
     inkscape:window-x="-9"
     inkscape:window-y="-9"
     inkscape:window-maximized="1"
     inkscape:current-layer="svg4" />
  <path
     d="m 12.911432,12 7.046786,-7.0417859 a 0.14271429,0.14271429 0 0 0 0,-0.201785 c -0.446428,-0.446429 -1.17,-0.446429 -1.616071,0 l -6.34,6.3349999 -1.737143,-1.7360718 c 0.373571,-0.5492861 0.592143,-1.2125001 0.592143,-1.9267861 0,-1.893571 -1.5350003,-3.428571 -3.4285718,-3.428571 -1.8935714,0 -3.4285714,1.535 -3.4285714,3.428571 0,1.893572 1.535,3.4285719 3.4285714,3.4285719 0.7146429,0 1.3778572,-0.218572 1.9271429,-0.592857 L 11.092504,12 9.3557181,13.735714 c -0.5492857,-0.374285 -1.2125,-0.592857 -1.9271429,-0.592857 -1.8935714,0 -3.4285714,1.535 -3.4285714,3.428572 0,1.893571 1.535,3.428571 3.4285714,3.428571 1.8935715,0 3.4285718,-1.535 3.4285718,-3.428571 0,-0.714286 -0.218572,-1.3775 -0.592143,-1.926786 l 1.737143,-1.736072 6.34,6.335 c 0.446428,0.446429 1.17,0.446429 1.616071,0 a 0.14271429,0.14271429 0 0 0 0,-0.201785 z M 7.4285752,9.7142862 c -1.2603571,0 -2.2857143,-1.025357 -2.2857143,-2.2857151 0,-1.260357 1.0253572,-2.285714 2.2857143,-2.285714 1.2603572,0 2.2857143,1.025357 2.2857143,2.285714 0,1.2603581 -1.0253571,2.2857151 -2.2857143,2.2857151 z m 0,9.1428568 c -1.2603571,0 -2.2857143,-1.025357 -2.2857143,-2.285714 0,-1.260358 1.0253572,-2.285715 2.2857143,-2.285715 1.2603572,0 2.2857143,1.025357 2.2857143,2.285715 0,1.260357 -1.0253571,2.285714 -2.2857143,2.285714 z"
     id="path2"
     style="stroke-width:0.0357143" />
</svg>
