<?xml version="1.0" encoding="UTF-8" standalone="no"?>
<svg
   viewBox="0 0 24 24"
   version="1.1"
   id="svg4"
   sodipodi:docname="duplicate.svg"
   width="24"
   height="24"
   inkscape:version="1.1.2 (b8e25be833, 2022-02-05)"
   xmlns:inkscape="http://www.inkscape.org/namespaces/inkscape"
   xmlns:sodipodi="http://sodipodi.sourceforge.net/DTD/sodipodi-0.dtd"
   xmlns="http://www.w3.org/2000/svg"
   xmlns:svg="http://www.w3.org/2000/svg">
  <defs
     id="defs8" />
  <sodipodi:namedview
     id="namedview6"
     pagecolor="#ffffff"
     bordercolor="#666666"
     borderopacity="1.0"
     inkscape:pageshadow="2"
     inkscape:pageopacity="0.0"
     inkscape:pagecheckerboard="0"
     showgrid="true"
     width="24px"
     inkscape:zoom="12.625"
     inkscape:cx="38.613861"
     inkscape:cy="34.891089"
     inkscape:window-width="1920"
     inkscape:window-height="1001"
     inkscape:window-x="-9"
     inkscape:window-y="-9"
     inkscape:window-maximized="1"
     inkscape:current-layer="svg4">
    <inkscape:grid
       type="xygrid"
       id="grid10" />
  </sodipodi:namedview>
  <path
     d="M 18.5,4 H 8.5 C 7.6715625,4 7,4.6715625 7,5.5 V 7 H 5.5 C 4.6715625,7 4,7.6715625 4,8.5 v 10 C 4,19.328438 4.6715625,20 5.5,20 h 10 C 16.328438,20 17,19.328438 17,18.5 V 17 h 1.5 C 19.328438,17 20,16.328438 20,15.5 V 5.5 C 20,4.6715625 19.328438,4 18.5,4 Z M 16,18.5 C 16,18.775625 15.775625,19 15.5,19 H 5.5 C 5.224375,19 5,18.775625 5,18.5 V 8.5 C 5,8.224375 5.224375,8 5.5,8 H 7 v 7.5 C 7,16.328438 7.6715625,17 8.5,17 H 16 Z m 3,-3 C 19,15.775625 18.775625,16 18.5,16 H 8.5 C 8.224375,16 8,15.775625 8,15.5 V 5.5 C 8,5.224375 8.224375,5 8.5,5 h 10 C 18.775625,5 19,5.224375 19,5.5 Z"
     id="path2"
     style="stroke-width:0.03125" />
</svg>
