<?xml version="1.0" encoding="UTF-8" standalone="no"?>
<svg
   viewBox="0 0 24 24"
   version="1.1"
   id="svg4"
   sodipodi:docname="laugh.svg"
   width="24"
   height="24"
   inkscape:version="1.1.2 (b8e25be833, 2022-02-05)"
   xmlns:inkscape="http://www.inkscape.org/namespaces/inkscape"
   xmlns:sodipodi="http://sodipodi.sourceforge.net/DTD/sodipodi-0.dtd"
   xmlns="http://www.w3.org/2000/svg"
   xmlns:svg="http://www.w3.org/2000/svg">
  <defs
     id="defs8" />
  <sodipodi:namedview
     id="namedview6"
     pagecolor="#ffffff"
     bordercolor="#666666"
     borderopacity="1.0"
     inkscape:pageshadow="2"
     inkscape:pageopacity="0.0"
     inkscape:pagecheckerboard="0"
     showgrid="false"
     width="24px"
     inkscape:zoom="25.25"
     inkscape:cx="11.940594"
     inkscape:cy="13.841584"
     inkscape:window-width="1920"
     inkscape:window-height="1001"
     inkscape:window-x="-9"
     inkscape:window-y="-9"
     inkscape:window-maximized="1"
     inkscape:current-layer="svg4" />
  <path
     d="m 12,4 c -4.4193548,0 -8,3.580645 -8,8 0,4.419355 3.5806452,8 8,8 4.419355,0 8,-3.580645 8,-8 0,-4.419355 -3.580645,-8 -8,-8 z m 4.925806,12.925806 c -0.638709,0.63871 -1.387096,1.141936 -2.216129,1.493549 -0.858064,0.364516 -1.770967,0.548387 -2.712903,0.548387 -0.941935,0 -1.854839,-0.183871 -2.712903,-0.548387 C 8.4548387,18.067742 7.7096774,17.564516 7.0677419,16.925806 6.4290323,16.287097 5.9258065,15.53871 5.5741935,14.709677 5.2096774,13.851613 5.0258065,12.93871 5.0258065,11.996774 c 0,-0.941935 0.1838709,-1.854839 0.548387,-2.712903 C 5.9258065,8.454839 6.4290323,7.709677 7.0677419,7.067742 7.7064516,6.429032 8.4548387,5.9258065 9.283871,5.5741935 c 0.858064,-0.3645161 1.770968,-0.548387 2.712903,-0.548387 0.941936,0 1.854839,0.1838709 2.712903,0.548387 0.829033,0.351613 1.574194,0.8548385 2.216129,1.4935485 0.63871,0.63871 1.141936,1.387097 1.493549,2.216129 0.364516,0.858064 0.548387,1.770968 0.548387,2.712903 0,0.941936 -0.183871,1.854839 -0.548387,2.712903 -0.348387,0.832258 -0.851613,1.57742 -1.493549,2.216129 z m -2.345161,-5.958064 c 0.570968,0 1.032258,-0.46129 1.032258,-1.032258 0,-0.570968 -0.46129,-1.032258 -1.032258,-1.032258 -0.570968,0 -1.032258,0.46129 -1.032258,1.032258 0,0.570968 0.46129,1.032258 1.032258,1.032258 z m -5.1612902,0 c 0.5709678,0 1.0322582,-0.46129 1.0322582,-1.032258 0,-0.570968 -0.4612904,-1.032258 -1.0322582,-1.032258 -0.5709677,0 -1.032258,0.46129 -1.032258,1.032258 0,0.570968 0.4612903,1.032258 1.032258,1.032258 z m 6.9354842,2.064516 H 7.6451613 c -0.3096774,0 -0.5516129,0.270968 -0.5129032,0.580645 0.2838709,2.290323 2.2387096,4.064516 4.6096779,4.064516 h 0.516129 c 2.367741,0 4.32258,-1.774193 4.609677,-4.064516 0.03871,-0.309677 -0.203226,-0.580645 -0.512903,-0.580645 z m -4.096774,3.612903 h -0.516129 c -1.619355,0 -3.0161295,-1.074193 -3.4645166,-2.580645 h 7.4451616 c -0.448387,1.506452 -1.845162,2.580645 -3.464516,2.580645 z"
     id="path2"
     style="stroke-width:0.0322581" />
</svg>
