<?xml version="1.0" encoding="UTF-8" standalone="no"?>
<svg
   viewBox="0 0 24 24"
   version="1.1"
   id="svg4"
   sodipodi:docname="file-export.svg"
   width="24"
   height="24"
   inkscape:version="1.1.2 (b8e25be833, 2022-02-05)"
   xmlns:inkscape="http://www.inkscape.org/namespaces/inkscape"
   xmlns:sodipodi="http://sodipodi.sourceforge.net/DTD/sodipodi-0.dtd"
   xmlns="http://www.w3.org/2000/svg"
   xmlns:svg="http://www.w3.org/2000/svg">
  <defs
     id="defs8" />
  <sodipodi:namedview
     id="namedview6"
     pagecolor="#ffffff"
     bordercolor="#666666"
     borderopacity="1.0"
     inkscape:pageshadow="2"
     inkscape:pageopacity="0.0"
     inkscape:pagecheckerboard="0"
     showgrid="true"
     inkscape:zoom="12.625"
     inkscape:cx="24.356436"
     inkscape:cy="8.8316832"
     inkscape:window-width="1920"
     inkscape:window-height="1001"
     inkscape:window-x="-9"
     inkscape:window-y="-9"
     inkscape:window-maximized="1"
     inkscape:current-layer="svg4">
    <inkscape:grid
       type="xygrid"
       id="grid14" />
  </sodipodi:namedview>
  <path
     d="m 20.728281,12.871563 -2.243125,-2.13 c -0.258749,-0.243751 -0.637812,-0.30875 -0.963749,-0.168125 -0.322188,0.138124 -0.521563,0.436875 -0.521563,0.780312 V 13 h -2 V 8.1240625 c 0,-0.396875 -0.159375,-0.78125 -0.440625,-1.0621875 l -2.62125,-2.62125 C 11.656719,4.159375 11.275469,4 10.878906,4 H 4.4995315 C 3.671719,4.003125 2.999844,4.675 2.999844,5.5028125 V 18.500313 C 2.999844,19.328125 3.671719,20 4.4995315,20 h 9.0006255 c 0.827812,0 1.499687,-0.671875 1.499687,-1.499687 V 15 h -0.999687 v 3.500313 c 0,0.275 -0.225,0.5 -0.5,0.5 H 4.4995315 c -0.275,0 -0.5,-0.225 -0.5,-0.5 V 5.5028125 c 0,-0.275 0.225,-0.5028125 0.5,-0.5028125 H 10.000781 V 8.2521875 C 10.000781,8.6678125 10.335157,9 10.750781,9 h 3.249376 v 4 H 8.249844 c -0.138125,0 -0.25,0.111875 -0.25,0.25 v 0.5 c 0,0.138125 0.111875,0.25 0.25,0.25 h 8.75 v 1.645938 c 0,0.343125 0.199375,0.642187 0.521563,0.780312 0.466562,0.201562 0.84,-0.05031 0.965,-0.168437 l 2.241249,-2.12875 c 0.175625,-0.166563 0.2725,-0.390001 0.2725,-0.628751 0,-0.23875 -0.09688,-0.462812 -0.271875,-0.628749 z m -9.7275,-4.8693755 v -2.98375 c 0.0875,0.021875 0.165625,0.065625 0.23125,0.13125 l 2.62125,2.62125 c 0.06563,0.065625 0.109375,0.14375 0.13125,0.23125 z M 17.999844,15.34 v -3.68 l 1.9375,1.84 z"
     id="path2"
     style="stroke-width:0.03125" />
</svg>
