<?xml version="1.0" encoding="UTF-8" standalone="no"?>
<svg
   viewBox="0 0 24 24"
   version="1.1"
   id="svg4"
   sodipodi:docname="fill-drip.svg"
   width="24"
   height="24"
   inkscape:version="1.1.2 (b8e25be833, 2022-02-05)"
   xmlns:inkscape="http://www.inkscape.org/namespaces/inkscape"
   xmlns:sodipodi="http://sodipodi.sourceforge.net/DTD/sodipodi-0.dtd"
   xmlns="http://www.w3.org/2000/svg"
   xmlns:svg="http://www.w3.org/2000/svg">
  <defs
     id="defs8" />
  <sodipodi:namedview
     id="namedview6"
     pagecolor="#ffffff"
     bordercolor="#666666"
     borderopacity="1.0"
     inkscape:pageshadow="2"
     inkscape:pageopacity="0.0"
     inkscape:pagecheckerboard="0"
     showgrid="true"
     inkscape:zoom="12.625"
     inkscape:cx="32.673267"
     inkscape:cy="23.089109"
     inkscape:window-width="1920"
     inkscape:window-height="1001"
     inkscape:window-x="-9"
     inkscape:window-y="-9"
     inkscape:window-maximized="1"
     inkscape:current-layer="svg4">
    <inkscape:grid
       type="xygrid"
       id="grid10" />
  </sodipodi:namedview>
  <path
     d="m 19.004199,14.001055 c 0,0 -2.001211,2.897065 -2.001211,4.002421 0,1.105357 0.896167,2.001211 2.001211,2.001211 1.105044,0 2.001211,-0.895854 2.001211,-2.001211 0,-1.105356 -2.001211,-4.002421 -2.001211,-4.002421 z m 0,5.003027 c -0.551584,0 -1.000605,-0.449022 -1.000605,-0.999355 0.0081,-0.30581 0.424319,-1.1779 1.000918,-2.149113 0.576286,0.970588 0.992163,1.842052 1.000293,2.147862 0,0.551584 -0.449022,1.000606 -1.000606,1.000606 z m -0.29299,-8.22185 -6.494242,-6.4942422 C 12.021537,4.092559 11.765444,3.995 11.509352,3.995 c -0.256093,0 -0.512185,0.097559 -0.707303,0.2929898 L 7.8987293,7.1913091 4.7759022,4.068482 c -0.097559,-0.097559 -0.2560924,-0.097559 -0.3536515,0 L 4.0682866,4.4221334 c -0.097559,0.097559 -0.097559,0.2560925 0,0.3536515 L 7.1914263,7.8989247 3.8737939,11.216557 c -1.1722719,1.172272 -1.1722719,3.072484 0,4.244756 l 3.6644048,3.664405 c 0.5862922,0.58598 1.3542569,0.879282 2.1222216,0.879282 0.7682777,0 1.5362417,-0.29299 2.1222217,-0.879282 l 6.928255,-6.928255 c 0.390861,-0.390861 0.390861,-1.02437 3.12e-4,-1.415231 z m -7.63587,7.63587 c -0.378041,0.377729 -0.880533,0.58598 -1.4149187,0.58598 -0.5343858,0 -1.0368774,-0.208251 -1.414606,-0.58598 L 4.5810969,14.753385 C 4.3659667,14.538255 4.2130617,14.279973 4.1148773,14.001055 H 15.492074 Z m 5.41734,-5.417653 H 4.0282623 C 4.097054,12.595204 4.2846675,12.220602 4.5814095,11.92386 L 7.8987293,8.605915 10.645704,11.35289 c 0.195431,0.19543 0.512185,0.19543 0.707303,0 0.195431,-0.195431 0.195431,-0.512185 0,-0.707303 L 8.6060323,7.898612 11.508726,4.9956055 h 6.26e-4 l 6.494242,6.4939295 z"
     id="path2"
     style="stroke-width:0.0312689" />
</svg>
