<?xml version="1.0" encoding="UTF-8" standalone="no"?>
<svg
   xmlns:dc="http://purl.org/dc/elements/1.1/"
   xmlns:cc="http://creativecommons.org/ns#"
   xmlns:rdf="http://www.w3.org/1999/02/22-rdf-syntax-ns#"
   xmlns:svg="http://www.w3.org/2000/svg"
   xmlns="http://www.w3.org/2000/svg"
   xmlns:sodipodi="http://sodipodi.sourceforge.net/DTD/sodipodi-0.dtd"
   xmlns:inkscape="http://www.inkscape.org/namespaces/inkscape"
   viewBox="0 0 24 24"
   version="1.1"
   id="svg4"
   sodipodi:docname="fullscreen.svg"
   width="24"
   height="24"
   inkscape:version="0.92.3 (2405546, 2018-03-11)">
  <metadata
     id="metadata10">
    <rdf:RDF>
      <cc:Work
         rdf:about="">
        <dc:format>image/svg+xml</dc:format>
        <dc:type
           rdf:resource="http://purl.org/dc/dcmitype/StillImage" />
        <dc:title></dc:title>
      </cc:Work>
    </rdf:RDF>
  </metadata>
  <defs
     id="defs8" />
  <sodipodi:namedview
     pagecolor="#ffffff"
     bordercolor="#666666"
     borderopacity="1"
     objecttolerance="10"
     gridtolerance="10"
     guidetolerance="10"
     inkscape:pageopacity="0"
     inkscape:pageshadow="2"
     inkscape:window-width="2400"
     inkscape:window-height="1271"
     id="namedview6"
     showgrid="true"
     inkscape:zoom="29.5"
     inkscape:cx="7.4528786"
     inkscape:cy="14.584471"
     inkscape:window-x="2391"
     inkscape:window-y="-9"
     inkscape:window-maximized="1"
     inkscape:current-layer="svg4">
    <inkscape:grid
       type="xygrid"
       id="grid12" />
  </sodipodi:namedview>
  <path
     d="m 19.948169,15.840199 0.01071,3.714286 c 3e-6,0.235714 -0.192854,0.428571 -0.428568,0.428571 l -3.714286,-0.01071 c -0.235714,0 -0.428572,-0.192857 -0.428572,-0.428572 v -0.357143 c 0,-0.235714 0.192858,-0.42857 0.428572,-0.42857 l 2.071428,0.01071 0.02501,-0.025 -5.953571,-5.953573 -5.9535715,5.953572 0.025,0.025 2.0714282,-0.01071 c 0.2357147,0 0.4285716,0.192857 0.4285716,0.42857 v 0.357144 c 0,0.235714 -0.1928569,0.428571 -0.4285716,0.428571 l -3.7142899,0.01071 c -0.2357142,0 -0.4285714,-0.192857 -0.4285714,-0.428572 l 0.010715,-3.714285 c 0,-0.235715 0.1928571,-0.428572 0.4285714,-0.428572 h 0.3571428 c 0.2357144,0 0.4285715,0.192857 0.4285715,0.428572 l -0.010715,2.071428 0.025,0.025 5.9535669,-5.953575 -5.9535705,-5.953571 -0.025,0.024995 0.010715,2.0714286 c 0,0.2357138 -0.1928572,0.4285716 -0.4285715,0.4285716 H 4.3981695 c -0.2357143,0 -0.4285714,-0.1928578 -0.4285714,-0.4285716 L 3.9588834,4.4116274 c 0,-0.2357146 0.1928572,-0.4285715 0.4285714,-0.4285715 l 3.7142855,0.010711 c 0.2357146,0 0.4285715,0.1928578 0.4285715,0.4285715 v 0.3571432 c 0,0.2357138 -0.1928569,0.4285716 -0.4285715,0.4285716 l -2.0714282,-0.010711 -0.025,0.024996 5.9535709,5.9535728 5.953571,-5.9535728 -0.025,-0.024996 -2.071429,0.010711 c -0.235713,0 -0.428571,-0.1928578 -0.428571,-0.4285716 V 4.4223385 c 0,-0.2357137 0.192858,-0.4285715 0.428571,-0.4285715 l 3.714287,-0.010711 c 0.235714,0 0.428571,0.1928569 0.428571,0.4285715 l -0.01071,3.7142856 c 0,0.2357138 -0.192856,0.4285716 -0.428571,0.4285716 h -0.357143 c -0.235714,0 -0.428572,-0.1928578 -0.428572,-0.4285716 l 0.01071,-2.0714286 -0.025,-0.024996 -5.95357,5.9535675 5.953571,5.953572 0.025,-0.025 -0.01071,-2.071429 c 0,-0.235714 0.192858,-0.428571 0.428572,-0.428571 h 0.357143 c 0.235714,0 0.428571,0.192857 0.428571,0.428571 z"
     style="opacity:1;fill:#000000;fill-opacity:1;stroke-width:0.99999994"
     id="path2"
     inkscape:connector-curvature="0" />
</svg>
