<?xml version="1.0" encoding="UTF-8" standalone="no"?>
<svg
   xmlns:dc="http://purl.org/dc/elements/1.1/"
   xmlns:cc="http://creativecommons.org/ns#"
   xmlns:rdf="http://www.w3.org/1999/02/22-rdf-syntax-ns#"
   xmlns:svg="http://www.w3.org/2000/svg"
   xmlns="http://www.w3.org/2000/svg"
   xmlns:sodipodi="http://sodipodi.sourceforge.net/DTD/sodipodi-0.dtd"
   xmlns:inkscape="http://www.inkscape.org/namespaces/inkscape"
   viewBox="0 0 24 24"
   version="1.1"
   id="svg4"
   sodipodi:docname="highlight-bg-color.svg"
   width="24"
   height="24"
   inkscape:version="0.92.3 (2405546, 2018-03-11)">
  <metadata
     id="metadata10">
    <rdf:RDF>
      <cc:Work
         rdf:about="">
        <dc:format>image/svg+xml</dc:format>
        <dc:type
           rdf:resource="http://purl.org/dc/dcmitype/StillImage" />
        <dc:title />
      </cc:Work>
    </rdf:RDF>
  </metadata>
  <defs
     id="defs8" />
  <sodipodi:namedview
     pagecolor="#ffffff"
     bordercolor="#666666"
     borderopacity="1"
     objecttolerance="10"
     gridtolerance="10"
     guidetolerance="10"
     inkscape:pageopacity="0"
     inkscape:pageshadow="2"
     inkscape:window-width="2400"
     inkscape:window-height="1271"
     id="namedview6"
     showgrid="true"
     inkscape:zoom="29.5"
     inkscape:cx="3.7553097"
     inkscape:cy="11.294848"
     inkscape:window-x="2391"
     inkscape:window-y="-9"
     inkscape:window-maximized="1"
     inkscape:current-layer="svg4">
    <inkscape:grid
       type="xygrid"
       id="grid12" />
  </sodipodi:namedview>
  <path
     d="M 18.127135,5.1581806 16.437668,3.4678754 C 16.152506,3.1821553 15.776573,3.0380379 15.400359,3.0380379 A 1.4629572,1.4629572 0 0 0 14.429801,3.405313 L 6.451965,10.35003 c -0.2873968,0.253601 -0.4002328,0.652162 -0.2885139,1.019157 l 0.3488418,1.145676 -1.020551,1.021109 c -0.1882458,0.188523 -0.1882458,0.493797 0,0.682322 l 0.00696,0.0073 -2.1355085,2.218185 2.7896178,0.894308 1.2286272,-1.229187 5.586e-4,5.62e-4 c 0.1885253,0.188524 0.4940769,0.188524 0.6826018,0 l 1.018318,-1.018553 1.1426082,0.349961 c 0.503011,0.153885 0.877272,-0.126808 1.019713,-0.288237 L 18.18997,7.1674444 C 18.702479,6.5858632 18.675109,5.7060768 18.12714,5.1580963 Z M 5.9062186,16.320005 5.0066031,16.031491 6.1310526,14.857603 6.7494159,15.476246 Z m 4.6687304,-1.759294 c -0.01765,0.02013 -0.03916,0.02631 -0.06486,0.02631 -0.0073,0 -0.01508,-5.62e-4 -0.02323,-0.0016 L 9.3443639,14.23561 8.8307365,14.078367 7.7233245,15.186336 6.4148185,13.876992 7.5239067,12.767624 7.3675005,12.254277 7.0186586,11.108598 c -0.00948,-0.03158 2.79e-4,-0.06593 0.020381,-0.08373 L 8.2950394,9.9314182 11.667279,13.305326 Z M 17.515757,6.5803611 12.254919,12.629093 8.9703861,9.3428872 15.021073,4.0756257 C 15.14676,3.9647453 15.511239,3.8052666 15.8059,4.1001987 l 1.689187,1.6903057 c 0.213661,0.2136613 0.224553,0.5585938 0.02068,0.7898513 z"
     style="opacity:1;fill:#000000;fill-opacity:1;stroke-width:0.99999994"
     id="path2"
     inkscape:connector-curvature="0" />
  <rect
     id="tox-icon-highlight-bg-color__color"
     width="18"
     height="3"
     x="3"
     y="18.016949"
     style="fill:#000000;fill-rule:evenodd" />
</svg>
