<?xml version="1.0" encoding="UTF-8" standalone="no"?>
<svg
   xmlns:dc="http://purl.org/dc/elements/1.1/"
   xmlns:cc="http://creativecommons.org/ns#"
   xmlns:rdf="http://www.w3.org/1999/02/22-rdf-syntax-ns#"
   xmlns:svg="http://www.w3.org/2000/svg"
   xmlns="http://www.w3.org/2000/svg"
   xmlns:sodipodi="http://sodipodi.sourceforge.net/DTD/sodipodi-0.dtd"
   xmlns:inkscape="http://www.inkscape.org/namespaces/inkscape"
   viewBox="0 0 24 24"
   version="1.1"
   id="svg4"
   sodipodi:docname="image.svg"
   width="24"
   height="24"
   inkscape:version="0.92.3 (2405546, 2018-03-11)">
  <metadata
     id="metadata10">
    <rdf:RDF>
      <cc:Work
         rdf:about="">
        <dc:format>image/svg+xml</dc:format>
        <dc:type
           rdf:resource="http://purl.org/dc/dcmitype/StillImage" />
        <dc:title></dc:title>
      </cc:Work>
    </rdf:RDF>
  </metadata>
  <defs
     id="defs8" />
  <sodipodi:namedview
     pagecolor="#ffffff"
     bordercolor="#666666"
     borderopacity="1"
     objecttolerance="10"
     gridtolerance="10"
     guidetolerance="10"
     inkscape:pageopacity="0"
     inkscape:pageshadow="2"
     inkscape:window-width="2400"
     inkscape:window-height="1271"
     id="namedview6"
     showgrid="true"
     inkscape:zoom="29.5"
     inkscape:cx="8.0320186"
     inkscape:cy="14.813925"
     inkscape:window-x="2391"
     inkscape:window-y="-9"
     inkscape:window-maximized="1"
     inkscape:current-layer="svg4">
    <inkscape:grid
       type="xygrid"
       id="grid12" />
  </sodipodi:namedview>
  <path
     d="M 20.646892,3.9993172 H 3.3135593 c -1.1045834,0 -2,0.8954169 -2,2 V 17.999317 c 0,1.104583 0.8954166,2 2,2 H 20.646892 c 1.104583,0 2,-0.895417 2,-2 V 5.9993172 c 0,-1.1045831 -0.895417,-2 -2,-2 z m 0.666667,13.9999998 c 0,0.367583 -0.299084,0.666667 -0.666667,0.666667 H 3.3135593 c -0.3675834,0 -0.6666667,-0.299084 -0.6666667,-0.666667 V 5.9993172 c 0,-0.3675831 0.2990833,-0.6666667 0.6666667,-0.6666667 H 20.646892 c 0.367583,0 0.666667,0.2990836 0.666667,0.6666667 z m -15.3333331,-7 c 1.2886667,0 2.3333333,-1.0446668 2.3333333,-2.3333332 0,-1.2886666 -1.0446666,-2.3333333 -2.3333333,-2.3333333 -1.2886666,0 -2.3333333,1.0446667 -2.3333333,2.3333333 0,1.2886664 1.0446667,2.3333332 2.3333333,2.3333332 z m 0,-3.3333331 c 0.5514166,0 1,0.4485831 1,0.9999999 0,0.5514174 -0.4485834,1.0000004 -1,1.0000004 -0.5514167,0 -1,-0.448583 -1,-1.0000004 0,-0.5514168 0.4485833,-0.9999999 1,-0.9999999 z M 14.606434,8.6255252 10.646892,12.585109 9.3540175,11.292234 c -0.3905416,-0.390542 -1.0237083,-0.390542 -1.4142082,0 L 4.2731427,14.9589 a 0.9999167,0.9999167 0 0 0 -0.2929168,0.707084 v 1.166666 c 0,0.276126 0.2238751,0.5 0.5,0.5 H 19.480226 c 0.276125,0 0.5,-0.223874 0.5,-0.5 v -3.833333 c 0,-0.265208 -0.105376,-0.519583 -0.292875,-0.707125 L 16.020684,8.6255252 c -0.390542,-0.3904996 -1.023708,-0.3904996 -1.41425,0 z m 4.040458,7.3737918 H 5.3135593 v -0.19525 l 3.3333333,-3.333333 1.9999994,2 4.666667,-4.6666668 3.333333,3.3333338 z"
     style="opacity:1;fill:#000000;fill-opacity:1;stroke-width:1"
     id="path2"
     inkscape:connector-curvature="0" />
</svg>
