<?xml version="1.0" encoding="UTF-8" standalone="no"?>
<svg
   viewBox="0 0 24 24"
   version="1.1"
   id="svg4"
   sodipodi:docname="indent.svg"
   width="24"
   height="24"
   inkscape:version="1.1.2 (b8e25be833, 2022-02-05)"
   xmlns:inkscape="http://www.inkscape.org/namespaces/inkscape"
   xmlns:sodipodi="http://sodipodi.sourceforge.net/DTD/sodipodi-0.dtd"
   xmlns="http://www.w3.org/2000/svg"
   xmlns:svg="http://www.w3.org/2000/svg">
  <defs
     id="defs8" />
  <sodipodi:namedview
     id="namedview6"
     pagecolor="#ffffff"
     bordercolor="#666666"
     borderopacity="1.0"
     inkscape:pageshadow="2"
     inkscape:pageopacity="0.0"
     inkscape:pagecheckerboard="0"
     showgrid="true"
     inkscape:zoom="12.625"
     inkscape:cx="22.376238"
     inkscape:cy="23.960396"
     inkscape:window-width="1920"
     inkscape:window-height="1001"
     inkscape:window-x="-9"
     inkscape:window-y="-9"
     inkscape:window-maximized="1"
     inkscape:current-layer="svg4">
    <inkscape:grid
       type="xygrid"
       id="grid10" />
  </sodipodi:namedview>
  <path
     d="M 4.4350001,7.873077 A 0.60115385,0.60115385 0 0 0 4.0053847,7.692308 0.61538462,0.61538462 0 0 0 3.3846155,8.307692 v 7.384616 a 0.61538462,0.61538462 0 0 0 0.6203846,0.615384 0.59923077,0.59923077 0 0 0 0.43,-0.180769 l 3.6923077,-3.692308 a 0.61538462,0.61538462 0 0 0 0,-0.87 z m 0.1803846,6.333077 V 9.793846 L 6.8219232,12 Z M 20.307693,4 H 3.6923078 A 0.30769231,0.30769231 0 0 0 3.3846155,4.307692 V 4.923077 A 0.30769231,0.30769231 0 0 0 3.6923078,5.230769 H 20.307693 A 0.30769231,0.30769231 0 0 0 20.615385,4.923077 V 4.307692 A 0.30769231,0.30769231 0 0 0 20.307693,4 Z m 0,14.769231 H 3.6923078 a 0.30769231,0.30769231 0 0 0 -0.3076923,0.307692 v 0.615385 A 0.30769231,0.30769231 0 0 0 3.6923078,20 H 20.307693 a 0.30769231,0.30769231 0 0 0 0.307692,-0.307692 v -0.615385 a 0.30769231,0.30769231 0 0 0 -0.307692,-0.307692 z m 0,-4.923077 h -9.230769 a 0.30769231,0.30769231 0 0 0 -0.307693,0.307692 v 0.615385 a 0.30769231,0.30769231 0 0 0 0.307693,0.307692 h 9.230769 a 0.30769231,0.30769231 0 0 0 0.307692,-0.307692 v -0.615385 a 0.30769231,0.30769231 0 0 0 -0.307692,-0.307692 z m 0,-4.923077 h -9.230769 a 0.30769231,0.30769231 0 0 0 -0.307693,0.307692 v 0.615385 a 0.30769231,0.30769231 0 0 0 0.307693,0.307692 h 9.230769 A 0.30769231,0.30769231 0 0 0 20.615385,9.846154 V 9.230769 A 0.30769231,0.30769231 0 0 0 20.307693,8.923077 Z"
     id="path2"
     style="stroke-width:0.0384615" />
</svg>
