<?xml version="1.0" encoding="UTF-8" standalone="no"?>
<svg
   viewBox="0 0 24 24"
   version="1.1"
   id="svg4"
   sodipodi:docname="clock.svg"
   width="24"
   height="24"
   inkscape:version="1.1.2 (b8e25be833, 2022-02-05)"
   xmlns:inkscape="http://www.inkscape.org/namespaces/inkscape"
   xmlns:sodipodi="http://sodipodi.sourceforge.net/DTD/sodipodi-0.dtd"
   xmlns="http://www.w3.org/2000/svg"
   xmlns:svg="http://www.w3.org/2000/svg">
  <defs
     id="defs8" />
  <sodipodi:namedview
     id="namedview6"
     pagecolor="#ffffff"
     bordercolor="#666666"
     borderopacity="1.0"
     inkscape:pageshadow="2"
     inkscape:pageopacity="0.0"
     inkscape:pagecheckerboard="0"
     showgrid="true"
     inkscape:zoom="25.25"
     inkscape:cx="15.069307"
     inkscape:cy="19.386139"
     inkscape:window-width="1920"
     inkscape:window-height="1001"
     inkscape:window-x="-9"
     inkscape:window-y="-9"
     inkscape:window-maximized="1"
     inkscape:current-layer="svg4">
    <inkscape:grid
       type="xygrid"
       id="grid10" />
  </sodipodi:namedview>
  <path
     d="m 12,4 c -4.419355,0 -8,3.580645 -8,8 0,4.419355 3.580645,8 8,8 4.419355,0 8,-3.580645 8,-8 0,-4.419355 -3.580645,-8 -8,-8 z m 6.967742,8 c 0,3.829032 -3.1,6.967742 -6.967742,6.967742 -3.829032,0 -6.9677419,-3.1 -6.9677419,-6.967742 0,-3.829032 3.0999999,-6.9677419 6.9677419,-6.9677419 3.829032,0 6.967742,3.0999999 6.967742,6.9677419 z m -4.803226,2.848387 -2.619355,-1.903226 c -0.1,-0.07419 -0.158064,-0.190322 -0.158064,-0.312903 V 7.483871 c 0,-0.212903 0.174193,-0.387097 0.387097,-0.387097 h 0.451612 c 0.212904,0 0.387097,0.174194 0.387097,0.387097 v 4.719355 l 2.274194,1.654839 c 0.174193,0.125806 0.209677,0.367741 0.08387,0.541935 l -0.264516,0.364516 c -0.125807,0.170968 -0.367742,0.209678 -0.541936,0.08387 z"
     id="path2"
     style="stroke-width:0.0322581" />
</svg>
