<?xml version="1.0" encoding="UTF-8" standalone="no"?>
<svg
   xmlns:dc="http://purl.org/dc/elements/1.1/"
   xmlns:cc="http://creativecommons.org/ns#"
   xmlns:rdf="http://www.w3.org/1999/02/22-rdf-syntax-ns#"
   xmlns:svg="http://www.w3.org/2000/svg"
   xmlns="http://www.w3.org/2000/svg"
   xmlns:sodipodi="http://sodipodi.sourceforge.net/DTD/sodipodi-0.dtd"
   xmlns:inkscape="http://www.inkscape.org/namespaces/inkscape"
   viewBox="0 0 24 24"
   version="1.1"
   id="svg4"
   sodipodi:docname="italic.svg"
   width="24"
   height="24"
   inkscape:version="0.92.3 (2405546, 2018-03-11)">
  <metadata
     id="metadata10">
    <rdf:RDF>
      <cc:Work
         rdf:about="">
        <dc:format>image/svg+xml</dc:format>
        <dc:type
           rdf:resource="http://purl.org/dc/dcmitype/StillImage" />
        <dc:title></dc:title>
      </cc:Work>
    </rdf:RDF>
  </metadata>
  <defs
     id="defs8" />
  <sodipodi:namedview
     pagecolor="#ffffff"
     bordercolor="#666666"
     borderopacity="1"
     objecttolerance="10"
     gridtolerance="10"
     guidetolerance="10"
     inkscape:pageopacity="0"
     inkscape:pageshadow="2"
     inkscape:window-width="2400"
     inkscape:window-height="1271"
     id="namedview6"
     showgrid="true"
     inkscape:zoom="29.5"
     inkscape:cx="13.583939"
     inkscape:cy="18.013055"
     inkscape:window-x="2391"
     inkscape:window-y="-9"
     inkscape:window-maximized="1"
     inkscape:current-layer="svg4">
    <inkscape:grid
       type="xygrid"
       id="grid12" />
  </sodipodi:namedview>
  <path
     d="m 11.083581,5.1428577 h 1.614821 L 10.024724,18.857143 H 8.2611166 a 0.42857142,0.42857142 0 0 0 -0.4201431,0.344 l -0.057502,0.285715 c -0.053426,0.265357 0.1494666,0.513143 0.4201102,0.513143 h 4.6006063 a 0.42857142,0.42857142 0 0 0 0.420143,-0.344 l 0.0575,-0.285715 c 0.0534,-0.265357 -0.149501,-0.513143 -0.420144,-0.513143 H 11.246869 L 13.920583,5.1428577 h 1.786107 a 0.42857142,0.42857142 0 0 0 0.420143,-0.344 l 0.0575,-0.2857146 C 16.237766,4.2477866 16.034871,4.0000008 15.764227,4.0000008 h -4.623142 a 0.42857142,0.42857142 0 0 0 -0.420143,0.344 l -0.0575,0.2857138 c -0.0534,0.2653574 0.149499,0.5131431 0.420141,0.5131431 z"
     style="opacity:1;fill:#000000;fill-opacity:1;stroke-width:1"
     id="path2"
     inkscape:connector-curvature="0" />
</svg>
