<?xml version="1.0" encoding="UTF-8" standalone="no"?>
<svg
   xmlns:dc="http://purl.org/dc/elements/1.1/"
   xmlns:cc="http://creativecommons.org/ns#"
   xmlns:rdf="http://www.w3.org/1999/02/22-rdf-syntax-ns#"
   xmlns:svg="http://www.w3.org/2000/svg"
   xmlns="http://www.w3.org/2000/svg"
   xmlns:sodipodi="http://sodipodi.sourceforge.net/DTD/sodipodi-0.dtd"
   xmlns:inkscape="http://www.inkscape.org/namespaces/inkscape"
   viewBox="0 0 24 24"
   version="1.1"
   id="svg4"
   sodipodi:docname="link.svg"
   width="24"
   height="24"
   inkscape:version="0.92.3 (2405546, 2018-03-11)">
  <metadata
     id="metadata10">
    <rdf:RDF>
      <cc:Work
         rdf:about="">
        <dc:format>image/svg+xml</dc:format>
        <dc:type
           rdf:resource="http://purl.org/dc/dcmitype/StillImage" />
        <dc:title />
      </cc:Work>
    </rdf:RDF>
  </metadata>
  <defs
     id="defs8" />
  <sodipodi:namedview
     pagecolor="#ffffff"
     bordercolor="#666666"
     borderopacity="1"
     objecttolerance="10"
     gridtolerance="10"
     guidetolerance="10"
     inkscape:pageopacity="0"
     inkscape:pageshadow="2"
     inkscape:window-width="2400"
     inkscape:window-height="1271"
     id="namedview6"
     showgrid="true"
     inkscape:zoom="29.5"
     inkscape:cx="5.1185997"
     inkscape:cy="12.195033"
     inkscape:window-x="2391"
     inkscape:window-y="-9"
     inkscape:window-maximized="1"
     inkscape:current-layer="svg4">
    <inkscape:grid
       type="xygrid"
       id="grid12" />
  </sodipodi:namedview>
  <path
     d="m 13.467058,16.457784 -2.552339,2.55202 c -1.6363994,1.637073 -4.2873207,1.637881 -5.9245247,0 -1.637075,-1.6364 -1.6378805,-4.28732 0,-5.924524 l 2.5520183,-2.552341 a 4.2807455,4.2807455 0 0 1 0.1138242,-0.109666 c 0.2433108,-0.225747 0.637924,-0.06458 0.6512338,0.267029 0.00624,0.154911 0.019269,0.3096 0.039186,0.463546 0.015501,0.119787 -0.024045,0.23999 -0.1094726,0.32536 -0.5310936,0.530738 -2.4215659,2.421114 -2.4266575,2.426204 -1.1839381,1.184616 -1.1837124,3.099806 0,4.284193 1.1846147,1.183942 3.099805,1.183713 4.2841965,0 l 2.552338,-2.55234 0.01155,-0.01155 c 1.169857,-1.181808 1.164668,-3.096 -0.01192,-4.27259 -0.264706,-0.26471 -0.566445,-0.469863 -0.888968,-0.615818 -0.147144,-0.06656 -0.239312,-0.214854 -0.229904,-0.376084 a 2.0043932,2.0043932 0 0 1 0.09106,-0.4917416 c 0.06777,-0.2127282 0.307152,-0.3210086 0.513015,-0.2346104 0.485749,0.2038008 0.940597,0.503379 1.335306,0.898088 1.633497,1.63353 1.633206,4.291606 0,5.924879 z m -2.909925,-3.01492 c 0.394711,0.394711 0.849556,0.694288 1.335306,0.898089 0.205863,0.08635 0.445242,-0.0219 0.513014,-0.234608 a 2.0043932,2.0043932 0 0 0 0.09106,-0.491745 c 0.0096,-0.161229 -0.08278,-0.309503 -0.229904,-0.376085 C 11.944086,13.092594 11.64235,12.887441 11.37764,12.622699 10.201047,11.446109 10.195861,9.5319193 11.36573,8.3501081 l 0.01155,-0.01155 2.552342,-2.5523399 c 1.184389,-1.1837127 3.099578,-1.1839377 4.284192,0 1.183713,1.1843889 1.183937,3.0995795 0,4.2841918 -0.0049,0.005 -1.895531,1.895467 -2.426657,2.426208 -0.08545,0.08541 -0.124975,0.205574 -0.109478,0.325358 a 5.2579506,5.2579506 0 0 1 0.0392,0.463545 c 0.01331,0.331644 0.407955,0.492775 0.651235,0.267031 a 4.2321159,4.2321159 0 0 0 0.11382,-0.109667 l 2.55202,-2.552343 c 1.637881,-1.6372015 1.637074,-4.2881229 0,-5.9245214 -1.637171,-1.6378805 -4.288126,-1.6370748 -5.924522,0 l -2.55234,2.552018 c -1.6332086,1.6333052 -1.6334982,4.2913784 0,5.9248784 z"
     style="opacity:1;fill:#000000;fill-opacity:1;stroke-width:0.99999994"
     id="path2"
     inkscape:connector-curvature="0" />
</svg>
