<?xml version="1.0" encoding="UTF-8" standalone="no"?>
<svg
   xmlns:dc="http://purl.org/dc/elements/1.1/"
   xmlns:cc="http://creativecommons.org/ns#"
   xmlns:rdf="http://www.w3.org/1999/02/22-rdf-syntax-ns#"
   xmlns:svg="http://www.w3.org/2000/svg"
   xmlns="http://www.w3.org/2000/svg"
   xmlns:sodipodi="http://sodipodi.sourceforge.net/DTD/sodipodi-0.dtd"
   xmlns:inkscape="http://www.inkscape.org/namespaces/inkscape"
   viewBox="0 0 24 24"
   version="1.1"
   id="svg4"
   sodipodi:docname="ordered-list.svg"
   width="24"
   height="24"
   inkscape:version="0.92.3 (2405546, 2018-03-11)">
  <metadata
     id="metadata10">
    <rdf:RDF>
      <cc:Work
         rdf:about="">
        <dc:format>image/svg+xml</dc:format>
        <dc:type
           rdf:resource="http://purl.org/dc/dcmitype/StillImage" />
        <dc:title></dc:title>
      </cc:Work>
    </rdf:RDF>
  </metadata>
  <defs
     id="defs8" />
  <sodipodi:namedview
     pagecolor="#ffffff"
     bordercolor="#666666"
     borderopacity="1"
     objecttolerance="10"
     gridtolerance="10"
     guidetolerance="10"
     inkscape:pageopacity="0"
     inkscape:pageshadow="2"
     inkscape:window-width="2400"
     inkscape:window-height="1271"
     id="namedview6"
     showgrid="true"
     inkscape:zoom="29.5"
     inkscape:cx="3.6056497"
     inkscape:cy="13.924649"
     inkscape:window-x="2391"
     inkscape:window-y="-9"
     inkscape:window-maximized="1"
     inkscape:current-layer="svg4">
    <inkscape:grid
       type="xygrid"
       id="grid12" />
  </sodipodi:namedview>
  <path
     d="m 2.948481,7.9680135 c 0,-0.2301431 0.1214643,-0.3516791 0.3516786,-0.3516791 H 3.9203382 V 5.7110489 c 0,-0.1726427 0.00639,-0.3516783 0.00639,-0.3516783 h -0.012821 c 0,0 -0.063929,0.1406782 -0.1406429,0.2046071 l -0.057535,0.051147 C 3.5494791,5.7686249 3.3768362,5.7621609 3.2233719,5.5959422 L 3.0571576,5.4169066 C 2.8973361,5.2506924 2.9036933,5.0781208 3.0699434,4.9182639 L 3.8628005,4.1765856 C 3.9970148,4.0551207 4.1185148,4.0039785 4.2975149,4.0039785 h 0.3644643 c 0.2301428,0 0.3516429,0.1214284 0.3516429,0.3516427 v 3.2607496 h 0.6265714 c 0.2301429,0 0.3516786,0.1215005 0.3516786,0.3516792 v 0.2557858 c 0,0.2301067 -0.1215,0.3516427 -0.3516786,0.3516427 H 3.3001238 c -0.2301785,0 -0.3516785,-0.1214996 -0.3516785,-0.3516427 V 7.9680144 Z M 2.885052,13.805514 c 0,-1.660071 1.9430358,-1.955607 1.9430358,-2.60325 0,-0.314393 -0.2515714,-0.446464 -0.4842142,-0.446464 -0.2012144,0 -0.3709644,0.106893 -0.477893,0.220107 -0.1572144,0.150893 -0.3207144,0.213786 -0.4904644,0.07543 L 3.1303024,10.85641 C 2.954231,10.718053 2.9101953,10.560874 3.0422668,10.391088 3.262374,10.101838 3.6962312,9.7182665 4.4445169,9.7182665 c 0.7356786,0 1.5342858,0.4212855 1.5342858,1.3771075 0,1.40225 -1.8172501,1.672643 -1.8738215,2.251107 h 1.5971429 c 0.2263929,0 0.3458572,0.1195 0.3458572,0.345857 v 0.251572 c 0,0.226322 -0.1194643,0.345821 -0.3458572,0.345821 H 3.2560883 c -0.2137858,0 -0.3710001,-0.119499 -0.3710001,-0.345821 v -0.138393 z m 0.1026786,5.337001 0.1697857,-0.276679 c 0.1194643,-0.194893 0.2766429,-0.2075 0.4715715,-0.088 0.1697857,0.09429 0.3898929,0.188607 0.6413929,0.188607 0.40875,0 0.6413928,-0.201214 0.6413928,-0.446464 0,-0.352107 -0.3521428,-0.49675 -0.8363214,-0.49675 h -0.025143 c -0.2012142,0 -0.3018214,-0.06289 -0.3898571,-0.238964 l -0.031464,-0.0629 C 3.553659,17.576758 3.585052,17.419544 3.710838,17.274937 l 0.4087506,-0.496784 c 0.2137858,-0.257821 0.389893,-0.421322 0.389893,-0.421322 v -0.01257 c 0,0 -0.1446073,0.03143 -0.4276072,0.03143 H 3.3524096 c -0.2263572,0 -0.3458214,-0.119428 -0.3458214,-0.345821 v -0.251536 c 0,-0.226393 0.1194642,-0.345821 0.3458214,-0.345821 h 2.1442501 c 0.2263572,0 0.3458572,0.119428 0.3458572,0.339536 v 0.100607 c 0,0.176071 -0.044036,0.29557 -0.1572143,0.427607 l -0.7545715,0.867788 c 0.6665358,0.144607 1.0878215,0.672785 1.0878215,1.301607 3.58e-5,0.767178 -0.5407501,1.534321 -1.6663215,1.534321 -0.6099286,0 -1.0375358,-0.213786 -1.2890716,-0.383536 C 2.8870881,19.494657 2.8745524,19.324871 2.9877306,19.142515 Z M 21.037947,6.7182632 V 5.86112 A 0.21428573,0.21428573 0 0 0 20.823661,5.6468346 H 7.5379456 A 0.21428573,0.21428573 0 0 0 7.3236599,5.86112 V 6.7182632 A 0.21428573,0.21428573 0 0 0 7.5379456,6.9325485 H 20.823661 a 0.21428573,0.21428573 0 0 0 0.214286,-0.2142853 z m 0,5.7142868 V 11.575407 A 0.21428573,0.21428573 0 0 0 20.823661,11.361121 H 7.5379456 a 0.21428573,0.21428573 0 0 0 -0.2142857,0.214286 v 0.857143 a 0.21428573,0.21428573 0 0 0 0.2142857,0.214286 H 20.823661 a 0.21428573,0.21428573 0 0 0 0.214286,-0.214286 z m 0,5.714286 V 17.289693 A 0.21428573,0.21428573 0 0 0 20.823661,17.075407 H 7.5379456 a 0.21428573,0.21428573 0 0 0 -0.2142857,0.214286 v 0.857143 a 0.21428573,0.21428573 0 0 0 0.2142857,0.214286 H 20.823661 a 0.21428573,0.21428573 0 0 0 0.214286,-0.214286 z"
     style="opacity:1;fill:#000000;fill-opacity:1;stroke-width:1"
     id="path2"
     inkscape:connector-curvature="0" />
</svg>
