<?xml version="1.0" encoding="UTF-8" standalone="no"?>
<svg
   viewBox="0 0 24 24"
   version="1.1"
   id="svg4"
   sodipodi:docname="paragraph.svg"
   width="24"
   height="24"
   inkscape:version="1.1.2 (b8e25be833, 2022-02-05)"
   xmlns:inkscape="http://www.inkscape.org/namespaces/inkscape"
   xmlns:sodipodi="http://sodipodi.sourceforge.net/DTD/sodipodi-0.dtd"
   xmlns="http://www.w3.org/2000/svg"
   xmlns:svg="http://www.w3.org/2000/svg">
  <defs
     id="defs8" />
  <sodipodi:namedview
     id="namedview6"
     pagecolor="#ffffff"
     bordercolor="#666666"
     borderopacity="1.0"
     inkscape:pageshadow="2"
     inkscape:pageopacity="0.0"
     inkscape:pagecheckerboard="0"
     showgrid="true"
     inkscape:zoom="25.25"
     inkscape:cx="15.227723"
     inkscape:cy="10.792079"
     inkscape:window-width="1920"
     inkscape:window-height="1001"
     inkscape:window-x="-9"
     inkscape:window-y="-9"
     inkscape:window-maximized="1"
     inkscape:current-layer="svg4">
    <inkscape:grid
       type="xygrid"
       id="grid10" />
  </sodipodi:namedview>
  <path
     d="m 18.571514,4 h -7.714285 a 5.7142857,5.7142857 0 0 0 -5.7017856,6.094643 c 0.196429,3.035714 2.853929,5.333928 5.8974996,5.333928 h 0.947143 v 4.285715 A 0.28571429,0.28571429 0 0 0 12.2858,20 h 0.571429 a 0.28571429,0.28571429 0 0 0 0.285714,-0.285714 V 5.142857 h 2.285714 V 19.714286 A 0.28571429,0.28571429 0 0 0 15.714372,20 H 16.2858 a 0.28571429,0.28571429 0 0 0 0.285714,-0.285714 V 5.142857 h 2 A 0.28571429,0.28571429 0 0 0 18.857229,4.857143 V 4.285714 A 0.28571429,0.28571429 0 0 0 18.571514,4 Z m -6.571428,10.285714 h -1.142857 a 4.5714286,4.5714286 0 0 1 0,-9.142857 h 1.142857 z"
     id="path2"
     style="stroke-width:0.0357143" />
</svg>
