<?xml version="1.0" encoding="UTF-8" standalone="no"?>
<svg
   viewBox="0 0 24 24"
   version="1.1"
   id="svg4"
   sodipodi:docname="redo.svg"
   width="24"
   height="24"
   inkscape:version="1.1.2 (b8e25be833, 2022-02-05)"
   xmlns:inkscape="http://www.inkscape.org/namespaces/inkscape"
   xmlns:sodipodi="http://sodipodi.sourceforge.net/DTD/sodipodi-0.dtd"
   xmlns="http://www.w3.org/2000/svg"
   xmlns:svg="http://www.w3.org/2000/svg">
  <defs
     id="defs8" />
  <sodipodi:namedview
     id="namedview6"
     pagecolor="#ffffff"
     bordercolor="#666666"
     borderopacity="1.0"
     inkscape:pageshadow="2"
     inkscape:pageopacity="0.0"
     inkscape:pagecheckerboard="0"
     showgrid="true"
     inkscape:zoom="6.3125"
     inkscape:cx="73.742574"
     inkscape:cy="44.277228"
     inkscape:window-width="1920"
     inkscape:window-height="1001"
     inkscape:window-x="-9"
     inkscape:window-y="-9"
     inkscape:window-maximized="1"
     inkscape:current-layer="svg4">
    <inkscape:grid
       type="xygrid"
       id="grid10" />
  </sodipodi:namedview>
  <path
     d="m 19.612905,4.0000077 h -0.322581 c -0.213774,0 -0.387096,0.1733224 -0.387096,0.3870965 V 7.955651 C 17.509809,5.5821682 14.927778,3.9908141 11.974424,4.0000399 7.574846,4.0138141 3.993138,7.613199 4.0000089,12.012778 4.0069089,16.425195 7.586007,20 12.000005,20 c 2.062128,0 3.941998,-0.780225 5.360578,-2.061547 0.164936,-0.148968 0.17271,-0.405194 0.01555,-0.562355 L 17.1481,17.148066 c -0.145258,-0.145258 -0.378999,-0.152065 -0.531677,-0.01465 -1.222289,1.100064 -2.840127,1.769805 -4.616417,1.769805 -3.798192,0 -6.9032224,-3.075192 -6.9032224,-6.903222 0,-3.798192 3.0751924,-6.9032227 6.9032224,-6.9032227 2.672967,0 4.991514,1.5186117 6.138352,3.7419337 h -3.68674 c -0.213774,0 -0.387097,0.173323 -0.387097,0.387097 v 0.32258 c 0,0.213774 0.173323,0.387097 0.387097,0.387097 h 5.161287 c 0.213774,0 0.387096,-0.173323 0.387096,-0.387097 V 4.3871042 c 0,-0.2137741 -0.173322,-0.3870965 -0.387096,-0.3870965 z"
     id="path2"
     style="stroke-width:0.032258" />
</svg>
