<?xml version="1.0" encoding="UTF-8" standalone="no"?>
<svg
   viewBox="0 0 24 24"
   version="1.1"
   id="svg4"
   sodipodi:docname="strike-through.svg"
   width="24"
   height="24"
   inkscape:version="1.1.2 (b8e25be833, 2022-02-05)"
   xmlns:inkscape="http://www.inkscape.org/namespaces/inkscape"
   xmlns:sodipodi="http://sodipodi.sourceforge.net/DTD/sodipodi-0.dtd"
   xmlns="http://www.w3.org/2000/svg"
   xmlns:svg="http://www.w3.org/2000/svg">
  <defs
     id="defs8" />
  <sodipodi:namedview
     id="namedview6"
     pagecolor="#ffffff"
     bordercolor="#666666"
     borderopacity="1.0"
     inkscape:pageshadow="2"
     inkscape:pageopacity="0.0"
     inkscape:pagecheckerboard="0"
     showgrid="true"
     inkscape:zoom="1.578125"
     inkscape:cx="255.68317"
     inkscape:cy="256.31683"
     inkscape:window-width="1920"
     inkscape:window-height="1001"
     inkscape:window-x="-9"
     inkscape:window-y="-9"
     inkscape:window-maximized="1"
     inkscape:current-layer="svg4">
    <inkscape:grid
       type="xygrid"
       id="grid10" />
  </sodipodi:namedview>
  <path
     d="m 15.762851,14.285698 a 2.5885674,2.5885674 0 0 1 0.749999,2.437139 c -0.173571,0.821428 -0.769642,1.504641 -1.538212,1.839997 A 3.5267802,3.5267802 0 0 1 13.569283,18.85712 H 11.214287 A 2.7989242,2.7989242 0 0 1 8.5507196,16.946408 0.28821384,0.28821384 0 0 0 8.2139344,16.747837 l -0.5589277,0.130357 a 0.28571384,0.28571384 0 0 0 -0.2142854,0.357143 3.9385653,3.9385653 0 0 0 3.7735657,2.764638 h 2.357139 a 4.6760641,4.6760641 0 0 0 1.861426,-0.389642 c 1.197855,-0.521428 2.077139,-1.649283 2.249996,-2.944281 a 3.7328513,3.7328513 0 0 0 -0.47607,-2.380354 z M 8.9017904,10.857132 H 11.340358 L 9.9342888,10.156776 C 9.0492902,9.71642 8.5057196,8.818921 8.5310767,7.77428 A 2.5785674,2.5785674 0 0 1 9.9678602,5.512141 3.5189231,3.5189231 0 0 1 11.532501,5.142855 h 1.709283 a 3.8867797,3.8867797 0 0 1 3.411066,2.032497 0.28571384,0.28571384 0 0 0 0.368928,0.131786 L 17.543206,7.07071 A 0.28785669,0.28785669 0 0 0 17.683205,6.677853 5.0307065,5.0307065 0 0 0 13.241784,4 H 11.532501 A 4.6728499,4.6728499 0 0 0 9.455361,4.490356 C 8.1796487,5.128213 7.3875071,6.412496 7.3875071,7.890708 a 3.6464229,3.6464229 0 0 0 1.5142833,2.966424 z M 20.857129,11.999988 H 3.1428708 A 0.28571384,0.28571384 0 0 0 2.857157,12.285701 v 0.571428 a 0.28571384,0.28571384 0 0 0 0.2857138,0.285714 H 20.857129 a 0.28571384,0.28571384 0 0 0 0.285714,-0.285714 v -0.571428 a 0.28571384,0.28571384 0 0 0 -0.285714,-0.285713 z"
     id="path2"
     style="stroke-width:0.0357142" />
</svg>
