<?xml version="1.0" encoding="UTF-8" standalone="no"?>
<svg
   viewBox="0 0 24 24"
   version="1.1"
   id="svg4"
   sodipodi:docname="subscript.svg"
   width="24"
   height="24"
   inkscape:version="1.1.2 (b8e25be833, 2022-02-05)"
   xmlns:inkscape="http://www.inkscape.org/namespaces/inkscape"
   xmlns:sodipodi="http://sodipodi.sourceforge.net/DTD/sodipodi-0.dtd"
   xmlns="http://www.w3.org/2000/svg"
   xmlns:svg="http://www.w3.org/2000/svg">
  <defs
     id="defs8" />
  <sodipodi:namedview
     id="namedview6"
     pagecolor="#ffffff"
     bordercolor="#666666"
     borderopacity="1.0"
     inkscape:pageshadow="2"
     inkscape:pageopacity="0.0"
     inkscape:pagecheckerboard="0"
     showgrid="true"
     inkscape:zoom="1.578125"
     inkscape:cx="255.68317"
     inkscape:cy="256.31683"
     inkscape:window-width="1920"
     inkscape:window-height="1001"
     inkscape:window-x="-9"
     inkscape:window-y="-9"
     inkscape:window-maximized="1"
     inkscape:current-layer="svg4">
    <inkscape:grid
       type="xygrid"
       id="grid10" />
  </sodipodi:namedview>
  <path
     d="m 15.142857,4 h -2 A 0.57142857,0.57142857 0 0 0 12.661072,4.264643 L 9.1428573,9.792857 5.6250001,4.264643 A 0.57142857,0.57142857 0 0 0 5.1428573,4 h -2 A 0.28571429,0.28571429 0 0 0 2.857143,4.285714 v 0.571429 a 0.28571429,0.28571429 0 0 0 0.2857143,0.285714 h 1.6864286 l 3.635,5.714286 -3.635,5.714286 H 3.1428573 A 0.28571429,0.28571429 0 0 0 2.857143,16.857143 v 0.571428 a 0.28571429,0.28571429 0 0 0 0.2857143,0.285715 h 2 a 0.57142857,0.57142857 0 0 0 0.4821428,-0.264643 l 3.5178572,-5.528214 3.5182147,5.528214 a 0.57142857,0.57142857 0 0 0 0.481785,0.264643 h 2 a 0.28571429,0.28571429 0 0 0 0.285715,-0.285715 V 16.857143 A 0.28571429,0.28571429 0 0 0 15.142857,16.571429 H 13.456429 L 9.8214287,10.857143 13.456429,5.142857 h 1.686428 A 0.28571429,0.28571429 0 0 0 15.428572,4.857143 V 4.285714 A 0.28571429,0.28571429 0 0 0 15.142857,4 Z m 5.714286,14.857143 H 19.428572 V 12.571429 A 0.57142857,0.57142857 0 0 0 18.857143,12 h -0.571429 a 0.57142857,0.57142857 0 0 0 -0.510357,0.315357 l -0.571428,1.142857 a 0.57142857,0.57142857 0 0 0 0.510357,0.8275 h 0.571428 v 4.571429 h -1.428571 a 0.28571429,0.28571429 0 0 0 -0.285714,0.285714 v 0.571429 A 0.28571429,0.28571429 0 0 0 16.857143,20 h 4 a 0.28571429,0.28571429 0 0 0 0.285714,-0.285714 v -0.571429 a 0.28571429,0.28571429 0 0 0 -0.285714,-0.285714 z"
     id="path2"
     style="stroke-width:0.0357143" />
</svg>
