<?xml version="1.0" encoding="UTF-8" standalone="no"?>
<svg
   xmlns:dc="http://purl.org/dc/elements/1.1/"
   xmlns:cc="http://creativecommons.org/ns#"
   xmlns:rdf="http://www.w3.org/1999/02/22-rdf-syntax-ns#"
   xmlns:svg="http://www.w3.org/2000/svg"
   xmlns="http://www.w3.org/2000/svg"
   xmlns:sodipodi="http://sodipodi.sourceforge.net/DTD/sodipodi-0.dtd"
   xmlns:inkscape="http://www.inkscape.org/namespaces/inkscape"
   viewBox="0 0 24 24"
   version="1.1"
   id="svg4"
   sodipodi:docname="text-color.svg"
   width="24"
   height="24"
   inkscape:version="0.92.3 (2405546, 2018-03-11)">
  <metadata
     id="metadata10">
    <rdf:RDF>
      <cc:Work
         rdf:about="">
        <dc:format>image/svg+xml</dc:format>
        <dc:type
           rdf:resource="http://purl.org/dc/dcmitype/StillImage" />
        <dc:title></dc:title>
      </cc:Work>
    </rdf:RDF>
  </metadata>
  <defs
     id="defs8" />
  <sodipodi:namedview
     pagecolor="#ffffff"
     bordercolor="#666666"
     borderopacity="1"
     objecttolerance="10"
     gridtolerance="10"
     guidetolerance="10"
     inkscape:pageopacity="0"
     inkscape:pageshadow="2"
     inkscape:window-width="2400"
     inkscape:window-height="1271"
     id="namedview6"
     showgrid="true"
     inkscape:zoom="29.5"
     inkscape:cx="6.8800645"
     inkscape:cy="16.72512"
     inkscape:window-x="2391"
     inkscape:window-y="-9"
     inkscape:window-maximized="1"
     inkscape:current-layer="svg4">
    <inkscape:grid
       type="xygrid"
       id="grid12" />
  </sodipodi:namedview>
  <path
     d="M 11.311381,3.0292968 H 10.76278 A 0.38297185,0.38297185 0 0 0 10.404031,3.2781424 L 5.5300659,16.307871 H 4.7808155 c -0.2115302,0 -0.3830349,0.171502 -0.3830349,0.383029 v 0.255364 c 0,0.211523 0.1715047,0.383033 0.3830349,0.383033 h 2.8089293 c 0.2115308,0 0.3830355,-0.17151 0.3830355,-0.383033 V 16.6909 c 0,-0.211527 -0.1715047,-0.383029 -0.3830355,-0.383029 H 6.6932174 l 1.425244,-3.845048 h 5.8174566 l 1.444227,3.845048 h -0.895762 c -0.211527,0 -0.383028,0.171502 -0.383028,0.383029 v 0.255364 c 0,0.211523 0.171501,0.383033 0.383028,0.383033 h 2.808928 c 0.211533,0 0.383044,-0.17151 0.383044,-0.383033 V 16.6909 c 0,-0.211527 -0.171511,-0.383029 -0.383044,-0.383029 H 16.544067 L 11.670122,3.2781424 A 0.38303576,0.38303576 0 0 0 11.311381,3.0292968 Z M 8.5037955,11.43502 10.919981,5.0114749 c 0.0479,-0.123114 0.08657,-0.2498353 0.117079,-0.3647451 0.03036,0.1145591 0.06895,0.2408009 0.116542,0.363309 l 2.397104,6.4249812 z"
     style="opacity:1;fill:#000000;fill-opacity:1;stroke-width:1"
     id="path2"
     inkscape:connector-curvature="0" />
  <rect
     id="tox-icon-text-color__color"
     width="18"
     height="3"
     x="3"
     y="17.983051"
     style="fill:#000000;fill-rule:evenodd" />
</svg>
