<?xml version="1.0" encoding="UTF-8" standalone="no"?>
<svg
   xmlns:dc="http://purl.org/dc/elements/1.1/"
   xmlns:cc="http://creativecommons.org/ns#"
   xmlns:rdf="http://www.w3.org/1999/02/22-rdf-syntax-ns#"
   xmlns:svg="http://www.w3.org/2000/svg"
   xmlns="http://www.w3.org/2000/svg"
   xmlns:sodipodi="http://sodipodi.sourceforge.net/DTD/sodipodi-0.dtd"
   xmlns:inkscape="http://www.inkscape.org/namespaces/inkscape"
   viewBox="0 0 24 24"
   version="1.1"
   id="svg4"
   sodipodi:docname="underline.svg"
   width="24"
   height="24"
   inkscape:version="0.92.3 (2405546, 2018-03-11)">
  <metadata
     id="metadata10">
    <rdf:RDF>
      <cc:Work
         rdf:about="">
        <dc:format>image/svg+xml</dc:format>
        <dc:type
           rdf:resource="http://purl.org/dc/dcmitype/StillImage" />
        <dc:title></dc:title>
      </cc:Work>
    </rdf:RDF>
  </metadata>
  <defs
     id="defs8" />
  <sodipodi:namedview
     pagecolor="#ffffff"
     bordercolor="#666666"
     borderopacity="1"
     objecttolerance="10"
     gridtolerance="10"
     guidetolerance="10"
     inkscape:pageopacity="0"
     inkscape:pageshadow="2"
     inkscape:window-width="2400"
     inkscape:window-height="1271"
     id="namedview6"
     showgrid="true"
     inkscape:zoom="29.5"
     inkscape:cx="8.525114"
     inkscape:cy="10.761819"
     inkscape:window-x="2391"
     inkscape:window-y="-9"
     inkscape:window-maximized="1"
     inkscape:current-layer="svg4">
    <inkscape:grid
       type="xygrid"
       id="grid12" />
  </sodipodi:namedview>
  <path
     d="m 4.9661016,19.657044 v -0.25 c 0,-0.207093 0.1679062,-0.375 0.375,-0.375 H 18.591101 c 0.207094,0 0.375,0.167907 0.375,0.375 v 0.25 c 0,0.207093 -0.167906,0.375 -0.375,0.375 H 5.3411016 c -0.2070938,0 -0.375,-0.167907 -0.375,-0.375 z m 9.0981874,-15.25 v 0.2500001 c 0,0.2070933 0.167905,0.375 0.375,0.375 h 1.335 V 12.11045 c 0,2.670344 -1.451594,4.022687 -3.817031,4.022687 -2.3225626,0 -3.7990314,-1.259031 -3.7990314,-3.986625 V 5.0320441 h 1.3350313 c 0.2070937,0 0.3750002,-0.1679067 0.3750002,-0.375 V 4.407044 c 0,-0.2070933 -0.1679065,-0.375 -0.3750002,-0.375 H 5.7991954 c -0.2070938,0 -0.375,0.1679067 -0.375,0.375 v 0.2500001 c 0,0.2070933 0.1679062,0.375 0.375,0.375 h 1.3350312 v 7.1505619 c 0,3.337844 1.9872188,4.940438 4.8410314,4.940438 2.790218,0 4.823031,-1.650406 4.823031,-4.940438 V 5.0320441 h 1.335031 c 0.207094,0 0.375,-0.1679067 0.375,-0.375 V 4.407044 c 0,-0.2070933 -0.167906,-0.375 -0.375,-0.375 h -3.694031 c -0.207126,0 -0.375,0.1679067 -0.375,0.375 z"
     style="opacity:1;fill:#000000;fill-opacity:1;stroke-width:0.99999982"
     id="path2"
     inkscape:connector-curvature="0" />
</svg>
