<?xml version="1.0" encoding="UTF-8" standalone="no"?>
<svg
   viewBox="0 0 24 24"
   version="1.1"
   id="svg4"
   sodipodi:docname="undo.svg"
   width="24"
   height="24"
   inkscape:version="1.1.2 (b8e25be833, 2022-02-05)"
   xmlns:inkscape="http://www.inkscape.org/namespaces/inkscape"
   xmlns:sodipodi="http://sodipodi.sourceforge.net/DTD/sodipodi-0.dtd"
   xmlns="http://www.w3.org/2000/svg"
   xmlns:svg="http://www.w3.org/2000/svg">
  <defs
     id="defs8" />
  <sodipodi:namedview
     id="namedview6"
     pagecolor="#ffffff"
     bordercolor="#666666"
     borderopacity="1.0"
     inkscape:pageshadow="2"
     inkscape:pageopacity="0.0"
     inkscape:pagecheckerboard="0"
     showgrid="true"
     inkscape:zoom="12.625"
     inkscape:cx="21.425743"
     inkscape:cy="25.386139"
     inkscape:window-width="1920"
     inkscape:window-height="1001"
     inkscape:window-x="-9"
     inkscape:window-y="-9"
     inkscape:window-maximized="1"
     inkscape:current-layer="svg4">
    <inkscape:grid
       type="xygrid"
       id="grid10" />
  </sodipodi:namedview>
  <path
     d="m 4.3870957,4.0000077 h 0.3225805 c 0.2137741,0 0.3870966,0.1733224 0.3870966,0.3870965 V 7.955651 C 6.4901911,5.5821682 9.0722221,3.9908141 12.025576,4.0000399 16.425154,4.0138139 20.006862,7.613199 19.999991,12.012778 19.993091,16.425195 16.413993,20 11.999995,20 9.9378671,20 8.0579971,19.219775 6.6394171,17.938453 c -0.164935,-0.148968 -0.17271,-0.405194 -0.01555,-0.562355 l 0.228032,-0.228032 c 0.145258,-0.145258 0.379,-0.152065 0.531677,-0.01465 1.22229,1.100064 2.8401279,1.769805 4.6164169,1.769805 3.798192,0 6.903223,-3.075192 6.903223,-6.903222 0,-3.798192 -3.075192,-6.9032227 -6.903223,-6.9032227 -2.6729659,0 -4.9915139,1.5186117 -6.1383516,3.7419337 h 3.6867397 c 0.213775,0 0.387097,0.173323 0.387097,0.387097 v 0.32258 c 0,0.213774 -0.173322,0.387097 -0.387097,0.387097 H 4.3870957 C 4.1733216,9.935489 3.9999991,9.762166 3.9999991,9.548392 V 4.3871042 c 0,-0.2137741 0.1733225,-0.3870965 0.3870966,-0.3870965 z"
     id="path2"
     style="stroke-width:0.032258" />
</svg>
