<?xml version="1.0" encoding="UTF-8" standalone="no"?>
<svg
   viewBox="0 0 24 24"
   version="1.1"
   id="svg4"
   sodipodi:docname="zoom-in.svg"
   width="24"
   height="24"
   inkscape:version="1.1.2 (b8e25be833, 2022-02-05)"
   xmlns:inkscape="http://www.inkscape.org/namespaces/inkscape"
   xmlns:sodipodi="http://sodipodi.sourceforge.net/DTD/sodipodi-0.dtd"
   xmlns="http://www.w3.org/2000/svg"
   xmlns:svg="http://www.w3.org/2000/svg">
  <defs
     id="defs8" />
  <sodipodi:namedview
     id="namedview6"
     pagecolor="#ffffff"
     bordercolor="#666666"
     borderopacity="1.0"
     inkscape:pageshadow="2"
     inkscape:pageopacity="0.0"
     inkscape:pagecheckerboard="0"
     showgrid="true"
     inkscape:zoom="1.578125"
     inkscape:cx="255.68317"
     inkscape:cy="256.31683"
     inkscape:window-width="1920"
     inkscape:window-height="1001"
     inkscape:window-x="-9"
     inkscape:window-y="-9"
     inkscape:window-maximized="1"
     inkscape:current-layer="svg4">
    <inkscape:grid
       type="xygrid"
       id="grid10" />
  </sodipodi:namedview>
  <path
     d="m 13.997372,10.377508 v 0.250077 c 0,0.206314 -0.168802,0.375116 -0.375115,0.375116 h -2.625808 v 2.625808 c 0,0.206313 -0.168802,0.375115 -0.375116,0.375115 h -0.250077 c -0.206313,0 -0.3751149,-0.168802 -0.3751149,-0.375115 V 11.002701 H 7.3703333 c -0.2063135,0 -0.3751154,-0.168802 -0.3751154,-0.375116 v -0.250077 c 0,-0.206313 0.1688019,-0.375115 0.3751154,-0.375115 H 9.9961411 V 7.3765852 c 0,-0.2063134 0.1688019,-0.3751154 0.3751149,-0.3751154 h 0.250077 c 0.206314,0 0.375116,0.168802 0.375116,0.3751154 v 2.6258078 h 2.625808 c 0.206313,0 0.375115,0.168802 0.375115,0.375115 z m 5.892438,9.159068 -0.353234,0.353234 c -0.14692,0.14692 -0.384493,0.14692 -0.531413,0 l -4.032491,-4.032491 c -0.0719,-0.0719 -0.109409,-0.165676 -0.109409,-0.265706 v -0.265707 c -1.153479,1.044071 -2.682075,1.678641 -4.360716,1.678641 -3.5698483,0 -6.455111,-2.847751 -6.5020004,-6.417599 -0.046889,-3.6573753 2.9290261,-6.6332908 6.5864014,-6.5864014 3.569848,0.046889 6.417599,2.9321521 6.417599,6.5020004 0,1.678641 -0.63457,3.207237 -1.678641,4.360716 h 0.265707 c 0.10003,0 0.193809,0.04064 0.265706,0.109409 l 4.032491,4.032491 c 0.14692,0.14692 0.14692,0.384493 0,0.531413 z m -3.885571,-9.034029 c 0,-3.0415608 -2.460131,-5.5016926 -5.501692,-5.5016926 -3.0415608,0 -5.5016926,2.4601318 -5.5016926,5.5016926 0,3.041561 2.4601318,5.501692 5.5016926,5.501692 3.041561,0 5.501692,-2.460131 5.501692,-5.501692 z"
     id="path2"
     style="stroke-width:0.0312596" />
</svg>
